<svg xmlns="http://www.w3.org/2000/svg" width="900" height="290" style="font-family: -apple-system, BlinkMacSystemFont, 'Segoe UI', Helvetica, Arial, sans-serif;">
  <rect width="100%" height="100%" fill="#0d1117"/>
  <g>
    <line x1="40" y1="220.00" x2="860" y2="220.00" stroke="#30363d"/><text x="32" y="224.00" font-size="10" fill="#c9d1d9" text-anchor="end">0</text><line x1="40" y1="184.00" x2="860" y2="184.00" stroke="#30363d"/><text x="32" y="188.00" font-size="10" fill="#c9d1d9" text-anchor="end">100</text><line x1="40" y1="148.00" x2="860" y2="148.00" stroke="#30363d"/><text x="32" y="152.00" font-size="10" fill="#c9d1d9" text-anchor="end">200</text><line x1="40" y1="112.00" x2="860" y2="112.00" stroke="#30363d"/><text x="32" y="116.00" font-size="10" fill="#c9d1d9" text-anchor="end">300</text><line x1="40" y1="76.00" x2="860" y2="76.00" stroke="#30363d"/><text x="32" y="80.00" font-size="10" fill="#c9d1d9" text-anchor="end">400</text><line x1="40" y1="40.00" x2="860" y2="40.00" stroke="#30363d"/><text x="32" y="44.00" font-size="10" fill="#c9d1d9" text-anchor="end">500</text>
    <line x1="40.00" y1="40" x2="40.00" y2="220" stroke="#30363d" opacity="0.5"/><line x1="123.67" y1="40" x2="123.67" y2="220" stroke="#30363d" opacity="0.5"/><line x1="207.35" y1="40" x2="207.35" y2="220" stroke="#30363d" opacity="0.5"/><line x1="291.02" y1="40" x2="291.02" y2="220" stroke="#30363d" opacity="0.5"/><line x1="374.69" y1="40" x2="374.69" y2="220" stroke="#30363d" opacity="0.5"/><line x1="458.37" y1="40" x2="458.37" y2="220" stroke="#30363d" opacity="0.5"/><line x1="542.04" y1="40" x2="542.04" y2="220" stroke="#30363d" opacity="0.5"/><line x1="625.71" y1="40" x2="625.71" y2="220" stroke="#30363d" opacity="0.5"/><line x1="709.39" y1="40" x2="709.39" y2="220" stroke="#30363d" opacity="0.5"/><line x1="793.06" y1="40" x2="793.06" y2="220" stroke="#30363d" opacity="0.5"/>
    <line x1="40" y1="220" x2="860" y2="220" stroke="#30363d"/>
    <line x1="40" y1="40"   x2="40"   y2="220" stroke="#30363d"/>
    <path d="M 40.00 219.28 L 56.73 204.52 L 73.47 178.96 L 90.20 167.80 L 106.94 160.60 L 123.67 146.56 L 140.41 147.28 L 157.14 167.44 L 173.88 167.44 L 190.61 167.44 L 207.35 167.44 L 224.08 167.44 L 240.82 159.88 L 257.55 159.88 L 274.29 159.88 L 291.02 159.88 L 307.76 156.64 L 324.49 156.64 L 341.22 151.96 L 357.96 151.96 L 374.69 151.96 L 391.43 150.16 L 408.16 150.16 L 424.90 150.16 L 441.63 150.16 L 458.37 150.16 L 475.10 150.16 L 491.84 150.16 L 508.57 150.16 L 525.31 150.16 L 542.04 147.64 L 558.78 147.64 L 575.51 147.64 L 592.24 147.64 L 608.98 147.64 L 625.71 147.64 L 642.45 143.32 L 659.18 143.32 L 675.92 137.92 L 692.65 137.92 L 709.39 138.64 L 726.12 138.64 L 742.86 131.44 L 759.59 131.44 L 776.33 130.72 L 793.06 130.72 L 809.80 106.24 L 826.53 104.08 L 843.27 104.08 L 860.00 104.08" fill="none" stroke="#3fb950" stroke-width="2"/>
    <circle cx="860.00" cy="104.08" r="3" fill="#3fb950"/>
    <text x="40.00" y="235.00" font-size="9" fill="#c9d1d9" text-anchor="middle" transform="rotate(-45 40.00 235.00)">02:36</text><text x="123.67" y="235.00" font-size="9" fill="#c9d1d9" text-anchor="middle" transform="rotate(-45 123.67 235.00)">23:11</text><text x="207.35" y="235.00" font-size="9" fill="#c9d1d9" text-anchor="middle" transform="rotate(-45 207.35 235.00)">01:21</text><text x="291.02" y="235.00" font-size="9" fill="#c9d1d9" text-anchor="middle" transform="rotate(-45 291.02 235.00)">23:29</text><text x="374.69" y="235.00" font-size="9" fill="#c9d1d9" text-anchor="middle" transform="rotate(-45 374.69 235.00)">23:51</text><text x="458.37" y="235.00" font-size="9" fill="#c9d1d9" text-anchor="middle" transform="rotate(-45 458.37 235.00)">23:56</text><text x="542.04" y="235.00" font-size="9" fill="#c9d1d9" text-anchor="middle" transform="rotate(-45 542.04 235.00)">02:08</text><text x="625.71" y="235.00" font-size="9" fill="#c9d1d9" text-anchor="middle" transform="rotate(-45 625.71 235.00)">00:25</text><text x="709.39" y="235.00" font-size="9" fill="#c9d1d9" text-anchor="middle" transform="rotate(-45 709.39 235.00)">02:35</text><text x="793.06" y="235.00" font-size="9" fill="#c9d1d9" text-anchor="middle" transform="rotate(-45 793.06 235.00)">00:40</text>
  </g>
</svg>