<svg xmlns="http://www.w3.org/2000/svg" width="900" height="290" style="font-family: -apple-system, BlinkMacSystemFont, 'Segoe UI', Helvetica, Arial, sans-serif;">
  <rect width="100%" height="100%" fill="#0d1117"/>
  <g>
    <line x1="40" y1="220.00" x2="860" y2="220.00" stroke="#30363d"/><text x="32" y="224.00" font-size="10" fill="#c9d1d9" text-anchor="end">0</text><line x1="40" y1="184.00" x2="860" y2="184.00" stroke="#30363d"/><text x="32" y="188.00" font-size="10" fill="#c9d1d9" text-anchor="end">100</text><line x1="40" y1="148.00" x2="860" y2="148.00" stroke="#30363d"/><text x="32" y="152.00" font-size="10" fill="#c9d1d9" text-anchor="end">200</text><line x1="40" y1="112.00" x2="860" y2="112.00" stroke="#30363d"/><text x="32" y="116.00" font-size="10" fill="#c9d1d9" text-anchor="end">300</text><line x1="40" y1="76.00" x2="860" y2="76.00" stroke="#30363d"/><text x="32" y="80.00" font-size="10" fill="#c9d1d9" text-anchor="end">400</text><line x1="40" y1="40.00" x2="860" y2="40.00" stroke="#30363d"/><text x="32" y="44.00" font-size="10" fill="#c9d1d9" text-anchor="end">500</text>
    <line x1="40.00" y1="40" x2="40.00" y2="220" stroke="#30363d" opacity="0.5"/><line x1="113.43" y1="40" x2="113.43" y2="220" stroke="#30363d" opacity="0.5"/><line x1="186.87" y1="40" x2="186.87" y2="220" stroke="#30363d" opacity="0.5"/><line x1="260.30" y1="40" x2="260.30" y2="220" stroke="#30363d" opacity="0.5"/><line x1="333.73" y1="40" x2="333.73" y2="220" stroke="#30363d" opacity="0.5"/><line x1="407.16" y1="40" x2="407.16" y2="220" stroke="#30363d" opacity="0.5"/><line x1="480.60" y1="40" x2="480.60" y2="220" stroke="#30363d" opacity="0.5"/><line x1="554.03" y1="40" x2="554.03" y2="220" stroke="#30363d" opacity="0.5"/><line x1="627.46" y1="40" x2="627.46" y2="220" stroke="#30363d" opacity="0.5"/><line x1="700.90" y1="40" x2="700.90" y2="220" stroke="#30363d" opacity="0.5"/><line x1="774.33" y1="40" x2="774.33" y2="220" stroke="#30363d" opacity="0.5"/><line x1="847.76" y1="40" x2="847.76" y2="220" stroke="#30363d" opacity="0.5"/>
    <line x1="40" y1="220" x2="860" y2="220" stroke="#30363d"/>
    <line x1="40" y1="40"   x2="40"   y2="220" stroke="#30363d"/>
    <path d="M 40.00 219.28 L 52.24 204.52 L 64.48 178.96 L 76.72 167.80 L 88.96 160.60 L 101.19 146.56 L 113.43 147.28 L 125.67 167.44 L 137.91 167.44 L 150.15 167.44 L 162.39 167.44 L 174.63 167.44 L 186.87 159.88 L 199.10 159.88 L 211.34 159.88 L 223.58 159.88 L 235.82 156.64 L 248.06 156.64 L 260.30 151.96 L 272.54 151.96 L 284.78 151.96 L 297.01 150.16 L 309.25 150.16 L 321.49 150.16 L 333.73 150.16 L 345.97 150.16 L 358.21 150.16 L 370.45 150.16 L 382.69 150.16 L 394.93 150.16 L 407.16 147.64 L 419.40 147.64 L 431.64 147.64 L 443.88 147.64 L 456.12 147.64 L 468.36 147.64 L 480.60 143.32 L 492.84 143.32 L 505.07 137.92 L 517.31 137.92 L 529.55 138.64 L 541.79 138.64 L 554.03 131.44 L 566.27 131.44 L 578.51 130.72 L 590.75 130.72 L 602.99 106.24 L 615.22 104.08 L 627.46 104.08 L 639.70 104.08 L 651.94 104.08 L 664.18 103.72 L 676.42 103.72 L 688.66 103.72 L 700.90 103.72 L 713.13 96.52 L 725.37 96.52 L 737.61 93.64 L 749.85 93.64 L 762.09 97.24 L 774.33 97.24 L 786.57 95.80 L 798.81 95.80 L 811.04 95.80 L 823.28 95.80 L 835.52 91.12 L 847.76 91.12 L 860.00 91.12" fill="none" stroke="#3fb950" stroke-width="2"/>
    <circle cx="860.00" cy="91.12" r="3" fill="#3fb950"/>
    <text x="40.00" y="235.00" font-size="9" fill="#c9d1d9" text-anchor="middle" transform="rotate(-45 40.00 235.00)">02:36</text><text x="113.43" y="235.00" font-size="9" fill="#c9d1d9" text-anchor="middle" transform="rotate(-45 113.43 235.00)">01:14</text><text x="186.87" y="235.00" font-size="9" fill="#c9d1d9" text-anchor="middle" transform="rotate(-45 186.87 235.00)">01:26</text><text x="260.30" y="235.00" font-size="9" fill="#c9d1d9" text-anchor="middle" transform="rotate(-45 260.30 235.00)">01:49</text><text x="333.73" y="235.00" font-size="9" fill="#c9d1d9" text-anchor="middle" transform="rotate(-45 333.73 235.00)">01:55</text><text x="407.16" y="235.00" font-size="9" fill="#c9d1d9" text-anchor="middle" transform="rotate(-45 407.16 235.00)">02:08</text><text x="480.60" y="235.00" font-size="9" fill="#c9d1d9" text-anchor="middle" transform="rotate(-45 480.60 235.00)">02:29</text><text x="554.03" y="235.00" font-size="9" fill="#c9d1d9" text-anchor="middle" transform="rotate(-45 554.03 235.00)">02:35</text><text x="627.46" y="235.00" font-size="9" fill="#c9d1d9" text-anchor="middle" transform="rotate(-45 627.46 235.00)">01:00</text><text x="700.90" y="235.00" font-size="9" fill="#c9d1d9" text-anchor="middle" transform="rotate(-45 700.90 235.00)">01:07</text><text x="774.33" y="235.00" font-size="9" fill="#c9d1d9" text-anchor="middle" transform="rotate(-45 774.33 235.00)">15:58</text><text x="847.76" y="235.00" font-size="9" fill="#c9d1d9" text-anchor="middle" transform="rotate(-45 847.76 235.00)">21:23</text>
  </g>
</svg>