<svg xmlns="http://www.w3.org/2000/svg" width="900" height="290" style="font-family: -apple-system, BlinkMacSystemFont, 'Segoe UI', Helvetica, Arial, sans-serif;">
  <rect width="100%" height="100%" fill="#0d1117"/>
  <g>
    <line x1="40" y1="220.00" x2="860" y2="220.00" stroke="#30363d"/><text x="32" y="224.00" font-size="10" fill="#c9d1d9" text-anchor="end">0</text><line x1="40" y1="184.00" x2="860" y2="184.00" stroke="#30363d"/><text x="32" y="188.00" font-size="10" fill="#c9d1d9" text-anchor="end">100</text><line x1="40" y1="148.00" x2="860" y2="148.00" stroke="#30363d"/><text x="32" y="152.00" font-size="10" fill="#c9d1d9" text-anchor="end">200</text><line x1="40" y1="112.00" x2="860" y2="112.00" stroke="#30363d"/><text x="32" y="116.00" font-size="10" fill="#c9d1d9" text-anchor="end">300</text><line x1="40" y1="76.00" x2="860" y2="76.00" stroke="#30363d"/><text x="32" y="80.00" font-size="10" fill="#c9d1d9" text-anchor="end">400</text><line x1="40" y1="40.00" x2="860" y2="40.00" stroke="#30363d"/><text x="32" y="44.00" font-size="10" fill="#c9d1d9" text-anchor="end">500</text>
    <line x1="40.00" y1="40" x2="40.00" y2="220" stroke="#30363d" opacity="0.5"/><line x1="114.55" y1="40" x2="114.55" y2="220" stroke="#30363d" opacity="0.5"/><line x1="189.09" y1="40" x2="189.09" y2="220" stroke="#30363d" opacity="0.5"/><line x1="263.64" y1="40" x2="263.64" y2="220" stroke="#30363d" opacity="0.5"/><line x1="338.18" y1="40" x2="338.18" y2="220" stroke="#30363d" opacity="0.5"/><line x1="412.73" y1="40" x2="412.73" y2="220" stroke="#30363d" opacity="0.5"/><line x1="487.27" y1="40" x2="487.27" y2="220" stroke="#30363d" opacity="0.5"/><line x1="561.82" y1="40" x2="561.82" y2="220" stroke="#30363d" opacity="0.5"/><line x1="636.36" y1="40" x2="636.36" y2="220" stroke="#30363d" opacity="0.5"/><line x1="710.91" y1="40" x2="710.91" y2="220" stroke="#30363d" opacity="0.5"/><line x1="785.45" y1="40" x2="785.45" y2="220" stroke="#30363d" opacity="0.5"/><line x1="860.00" y1="40" x2="860.00" y2="220" stroke="#30363d" opacity="0.5"/>
    <line x1="40" y1="220" x2="860" y2="220" stroke="#30363d"/>
    <line x1="40" y1="40"   x2="40"   y2="220" stroke="#30363d"/>
    <path d="M 40.00 219.28 L 54.91 204.52 L 69.82 178.96 L 84.73 167.80 L 99.64 160.60 L 114.55 146.56 L 129.45 147.28 L 144.36 167.44 L 159.27 167.44 L 174.18 167.44 L 189.09 167.44 L 204.00 167.44 L 218.91 159.88 L 233.82 159.88 L 248.73 159.88 L 263.64 159.88 L 278.55 156.64 L 293.45 156.64 L 308.36 151.96 L 323.27 151.96 L 338.18 151.96 L 353.09 150.16 L 368.00 150.16 L 382.91 150.16 L 397.82 150.16 L 412.73 150.16 L 427.64 150.16 L 442.55 150.16 L 457.45 150.16 L 472.36 150.16 L 487.27 147.64 L 502.18 147.64 L 517.09 147.64 L 532.00 147.64 L 546.91 147.64 L 561.82 147.64 L 576.73 143.32 L 591.64 143.32 L 606.55 137.92 L 621.45 137.92 L 636.36 138.64 L 651.27 138.64 L 666.18 131.44 L 681.09 131.44 L 696.00 130.72 L 710.91 130.72 L 725.82 106.24 L 740.73 104.08 L 755.64 104.08 L 770.55 104.08 L 785.45 104.08 L 800.36 103.72 L 815.27 103.72 L 830.18 103.72 L 845.09 103.72 L 860.00 96.52" fill="none" stroke="#3fb950" stroke-width="2"/>
    <circle cx="860.00" cy="96.52" r="3" fill="#3fb950"/>
    <text x="40.00" y="235.00" font-size="9" fill="#c9d1d9" text-anchor="middle" transform="rotate(-45 40.00 235.00)">02:36</text><text x="114.55" y="235.00" font-size="9" fill="#c9d1d9" text-anchor="middle" transform="rotate(-45 114.55 235.00)">23:11</text><text x="189.09" y="235.00" font-size="9" fill="#c9d1d9" text-anchor="middle" transform="rotate(-45 189.09 235.00)">01:21</text><text x="263.64" y="235.00" font-size="9" fill="#c9d1d9" text-anchor="middle" transform="rotate(-45 263.64 235.00)">23:29</text><text x="338.18" y="235.00" font-size="9" fill="#c9d1d9" text-anchor="middle" transform="rotate(-45 338.18 235.00)">23:51</text><text x="412.73" y="235.00" font-size="9" fill="#c9d1d9" text-anchor="middle" transform="rotate(-45 412.73 235.00)">23:56</text><text x="487.27" y="235.00" font-size="9" fill="#c9d1d9" text-anchor="middle" transform="rotate(-45 487.27 235.00)">02:08</text><text x="561.82" y="235.00" font-size="9" fill="#c9d1d9" text-anchor="middle" transform="rotate(-45 561.82 235.00)">00:25</text><text x="636.36" y="235.00" font-size="9" fill="#c9d1d9" text-anchor="middle" transform="rotate(-45 636.36 235.00)">02:35</text><text x="710.91" y="235.00" font-size="9" fill="#c9d1d9" text-anchor="middle" transform="rotate(-45 710.91 235.00)">00:40</text><text x="785.45" y="235.00" font-size="9" fill="#c9d1d9" text-anchor="middle" transform="rotate(-45 785.45 235.00)">01:03</text><text x="860.00" y="235.00" font-size="9" fill="#c9d1d9" text-anchor="middle" transform="rotate(-45 860.00 235.00)">13:12</text>
  </g>
</svg>