<svg xmlns="http://www.w3.org/2000/svg" width="900" height="290" style="font-family: -apple-system, BlinkMacSystemFont, 'Segoe UI', Helvetica, Arial, sans-serif;">
  <rect width="100%" height="100%" fill="#0d1117"/>
  <g>
    <line x1="40" y1="220.00" x2="860" y2="220.00" stroke="#30363d"/><text x="32" y="224.00" font-size="10" fill="#c9d1d9" text-anchor="end">0</text><line x1="40" y1="184.00" x2="860" y2="184.00" stroke="#30363d"/><text x="32" y="188.00" font-size="10" fill="#c9d1d9" text-anchor="end">100</text><line x1="40" y1="148.00" x2="860" y2="148.00" stroke="#30363d"/><text x="32" y="152.00" font-size="10" fill="#c9d1d9" text-anchor="end">200</text><line x1="40" y1="112.00" x2="860" y2="112.00" stroke="#30363d"/><text x="32" y="116.00" font-size="10" fill="#c9d1d9" text-anchor="end">300</text><line x1="40" y1="76.00" x2="860" y2="76.00" stroke="#30363d"/><text x="32" y="80.00" font-size="10" fill="#c9d1d9" text-anchor="end">400</text><line x1="40" y1="40.00" x2="860" y2="40.00" stroke="#30363d"/><text x="32" y="44.00" font-size="10" fill="#c9d1d9" text-anchor="end">500</text>
    <line x1="40.00" y1="40" x2="40.00" y2="220" stroke="#30363d" opacity="0.5"/><line x1="104.74" y1="40" x2="104.74" y2="220" stroke="#30363d" opacity="0.5"/><line x1="169.47" y1="40" x2="169.47" y2="220" stroke="#30363d" opacity="0.5"/><line x1="234.21" y1="40" x2="234.21" y2="220" stroke="#30363d" opacity="0.5"/><line x1="298.95" y1="40" x2="298.95" y2="220" stroke="#30363d" opacity="0.5"/><line x1="363.68" y1="40" x2="363.68" y2="220" stroke="#30363d" opacity="0.5"/><line x1="428.42" y1="40" x2="428.42" y2="220" stroke="#30363d" opacity="0.5"/><line x1="493.16" y1="40" x2="493.16" y2="220" stroke="#30363d" opacity="0.5"/><line x1="557.89" y1="40" x2="557.89" y2="220" stroke="#30363d" opacity="0.5"/><line x1="622.63" y1="40" x2="622.63" y2="220" stroke="#30363d" opacity="0.5"/><line x1="687.37" y1="40" x2="687.37" y2="220" stroke="#30363d" opacity="0.5"/><line x1="752.11" y1="40" x2="752.11" y2="220" stroke="#30363d" opacity="0.5"/><line x1="816.84" y1="40" x2="816.84" y2="220" stroke="#30363d" opacity="0.5"/>
    <line x1="40" y1="220" x2="860" y2="220" stroke="#30363d"/>
    <line x1="40" y1="40"   x2="40"   y2="220" stroke="#30363d"/>
    <path d="M 40.00 219.28 L 61.58 204.52 L 83.16 178.96 L 104.74 167.80 L 126.32 160.60 L 147.89 146.56 L 169.47 147.28 L 191.05 167.44 L 212.63 167.44 L 234.21 167.44 L 255.79 167.44 L 277.37 167.44 L 298.95 159.88 L 320.53 159.88 L 342.11 159.88 L 363.68 159.88 L 385.26 156.64 L 406.84 156.64 L 428.42 151.96 L 450.00 151.96 L 471.58 151.96 L 493.16 150.16 L 514.74 150.16 L 536.32 150.16 L 557.89 150.16 L 579.47 150.16 L 601.05 150.16 L 622.63 150.16 L 644.21 150.16 L 665.79 150.16 L 687.37 147.64 L 708.95 147.64 L 730.53 147.64 L 752.11 147.64 L 773.68 147.64 L 795.26 147.64 L 816.84 143.32 L 838.42 143.32 L 860.00 137.92" fill="none" stroke="#3fb950" stroke-width="2"/>
    <circle cx="860.00" cy="137.92" r="3" fill="#3fb950"/>
    <text x="40.00" y="235.00" font-size="9" fill="#c9d1d9" text-anchor="middle" transform="rotate(-45 40.00 235.00)">02:36</text><text x="104.74" y="235.00" font-size="9" fill="#c9d1d9" text-anchor="middle" transform="rotate(-45 104.74 235.00)">03:03</text><text x="169.47" y="235.00" font-size="9" fill="#c9d1d9" text-anchor="middle" transform="rotate(-45 169.47 235.00)">01:14</text><text x="234.21" y="235.00" font-size="9" fill="#c9d1d9" text-anchor="middle" transform="rotate(-45 234.21 235.00)">23:18</text><text x="298.95" y="235.00" font-size="9" fill="#c9d1d9" text-anchor="middle" transform="rotate(-45 298.95 235.00)">01:26</text><text x="363.68" y="235.00" font-size="9" fill="#c9d1d9" text-anchor="middle" transform="rotate(-45 363.68 235.00)">23:29</text><text x="428.42" y="235.00" font-size="9" fill="#c9d1d9" text-anchor="middle" transform="rotate(-45 428.42 235.00)">01:49</text><text x="493.16" y="235.00" font-size="9" fill="#c9d1d9" text-anchor="middle" transform="rotate(-45 493.16 235.00)">01:53</text><text x="557.89" y="235.00" font-size="9" fill="#c9d1d9" text-anchor="middle" transform="rotate(-45 557.89 235.00)">01:55</text><text x="622.63" y="235.00" font-size="9" fill="#c9d1d9" text-anchor="middle" transform="rotate(-45 622.63 235.00)">00:05</text><text x="687.37" y="235.00" font-size="9" fill="#c9d1d9" text-anchor="middle" transform="rotate(-45 687.37 235.00)">02:08</text><text x="752.11" y="235.00" font-size="9" fill="#c9d1d9" text-anchor="middle" transform="rotate(-45 752.11 235.00)">00:10</text><text x="816.84" y="235.00" font-size="9" fill="#c9d1d9" text-anchor="middle" transform="rotate(-45 816.84 235.00)">02:29</text>
  </g>
</svg>