<svg xmlns="http://www.w3.org/2000/svg" width="900" height="290" style="font-family: -apple-system, BlinkMacSystemFont, 'Segoe UI', Helvetica, Arial, sans-serif;">
  <rect width="100%" height="100%" fill="#0d1117"/>
  <g>
    <line x1="40" y1="220.00" x2="860" y2="220.00" stroke="#30363d"/><text x="32" y="224.00" font-size="10" fill="#c9d1d9" text-anchor="end">0</text><line x1="40" y1="175.00" x2="860" y2="175.00" stroke="#30363d"/><text x="32" y="179.00" font-size="10" fill="#c9d1d9" text-anchor="end">125</text><line x1="40" y1="130.00" x2="860" y2="130.00" stroke="#30363d"/><text x="32" y="134.00" font-size="10" fill="#c9d1d9" text-anchor="end">250</text><line x1="40" y1="85.00" x2="860" y2="85.00" stroke="#30363d"/><text x="32" y="89.00" font-size="10" fill="#c9d1d9" text-anchor="end">375</text><line x1="40" y1="40.00" x2="860" y2="40.00" stroke="#30363d"/><text x="32" y="44.00" font-size="10" fill="#c9d1d9" text-anchor="end">500</text>
    <line x1="40.00" y1="40" x2="40.00" y2="220" stroke="#30363d" opacity="0.5"/><line x1="115.53" y1="40" x2="115.53" y2="220" stroke="#30363d" opacity="0.5"/><line x1="191.05" y1="40" x2="191.05" y2="220" stroke="#30363d" opacity="0.5"/><line x1="266.58" y1="40" x2="266.58" y2="220" stroke="#30363d" opacity="0.5"/><line x1="342.11" y1="40" x2="342.11" y2="220" stroke="#30363d" opacity="0.5"/><line x1="417.63" y1="40" x2="417.63" y2="220" stroke="#30363d" opacity="0.5"/><line x1="493.16" y1="40" x2="493.16" y2="220" stroke="#30363d" opacity="0.5"/><line x1="568.68" y1="40" x2="568.68" y2="220" stroke="#30363d" opacity="0.5"/><line x1="644.21" y1="40" x2="644.21" y2="220" stroke="#30363d" opacity="0.5"/><line x1="719.74" y1="40" x2="719.74" y2="220" stroke="#30363d" opacity="0.5"/><line x1="795.26" y1="40" x2="795.26" y2="220" stroke="#30363d" opacity="0.5"/>
    <line x1="40" y1="220" x2="860" y2="220" stroke="#30363d"/>
    <line x1="40" y1="40"   x2="40"   y2="220" stroke="#30363d"/>
    <path d="M 40.00 219.28 L 50.79 204.52 L 61.58 178.96 L 72.37 167.80 L 83.16 160.60 L 93.95 146.56 L 104.74 147.28 L 115.53 167.44 L 126.32 167.44 L 137.11 167.44 L 147.89 167.44 L 158.68 167.44 L 169.47 159.88 L 180.26 159.88 L 191.05 159.88 L 201.84 159.88 L 212.63 156.64 L 223.42 156.64 L 234.21 151.96 L 245.00 151.96 L 255.79 151.96 L 266.58 150.16 L 277.37 150.16 L 288.16 150.16 L 298.95 150.16 L 309.74 150.16 L 320.53 150.16 L 331.32 150.16 L 342.11 150.16 L 352.89 150.16 L 363.68 147.64 L 374.47 147.64 L 385.26 147.64 L 396.05 147.64 L 406.84 147.64 L 417.63 147.64 L 428.42 143.32 L 439.21 143.32 L 450.00 137.92 L 460.79 137.92 L 471.58 138.64 L 482.37 138.64 L 493.16 131.44 L 503.95 131.44 L 514.74 130.72 L 525.53 130.72 L 536.32 106.24 L 547.11 104.08 L 557.89 104.08 L 568.68 104.08 L 579.47 104.08 L 590.26 103.72 L 601.05 103.72 L 611.84 103.72 L 622.63 103.72 L 633.42 96.52 L 644.21 96.52 L 655.00 93.64 L 665.79 93.64 L 676.58 97.24 L 687.37 97.24 L 698.16 95.80 L 708.95 95.80 L 719.74 95.80 L 730.53 95.80 L 741.32 91.12 L 752.11 91.12 L 762.89 91.12 L 773.68 91.12 L 784.47 91.48 L 795.26 91.48 L 806.05 75.64 L 816.84 75.64 L 827.63 75.28 L 838.42 75.28 L 849.21 75.28 L 860.00 72.40" fill="none" stroke="#3fb950" stroke-width="2"/>
    <circle cx="860.00" cy="72.40" r="3" fill="#3fb950"/>
    <text x="40.00" y="235.00" font-size="9" fill="#c9d1d9" text-anchor="middle" transform="rotate(-45 40.00 235.00)">10.08.2025</text><text x="115.53" y="235.00" font-size="9" fill="#c9d1d9" text-anchor="middle" transform="rotate(-45 115.53 235.00)">09.08.2025</text><text x="191.05" y="235.00" font-size="9" fill="#c9d1d9" text-anchor="middle" transform="rotate(-45 191.05 235.00)">10.08.2025</text><text x="266.58" y="235.00" font-size="9" fill="#c9d1d9" text-anchor="middle" transform="rotate(-45 266.58 235.00)">10.08.2025</text><text x="342.11" y="235.00" font-size="9" fill="#c9d1d9" text-anchor="middle" transform="rotate(-45 342.11 235.00)">10.08.2025</text><text x="417.63" y="235.00" font-size="9" fill="#c9d1d9" text-anchor="middle" transform="rotate(-45 417.63 235.00)">10.08.2025</text><text x="493.16" y="235.00" font-size="9" fill="#c9d1d9" text-anchor="middle" transform="rotate(-45 493.16 235.00)">10.08.2025</text><text x="568.68" y="235.00" font-size="9" fill="#c9d1d9" text-anchor="middle" transform="rotate(-45 568.68 235.00)">10.08.2025</text><text x="644.21" y="235.00" font-size="9" fill="#c9d1d9" text-anchor="middle" transform="rotate(-45 644.21 235.00)">10.08.2025</text><text x="719.74" y="235.00" font-size="9" fill="#c9d1d9" text-anchor="middle" transform="rotate(-45 719.74 235.00)">10.08.2025</text><text x="795.26" y="235.00" font-size="9" fill="#c9d1d9" text-anchor="middle" transform="rotate(-45 795.26 235.00)">10.08.2025</text>
  </g>
</svg>