<svg xmlns="http://www.w3.org/2000/svg" width="900" height="290" style="font-family: -apple-system, BlinkMacSystemFont, 'Segoe UI', Helvetica, Arial, sans-serif;">
  <rect width="100%" height="100%" fill="white"/>
  <g>
    <line x1="40" y1="220.00" x2="860" y2="220.00" stroke="#e5e7eb"/><text x="32" y="224.00" font-size="10" fill="#111827" text-anchor="end">0</text><line x1="40" y1="184.00" x2="860" y2="184.00" stroke="#e5e7eb"/><text x="32" y="188.00" font-size="10" fill="#111827" text-anchor="end">100</text><line x1="40" y1="148.00" x2="860" y2="148.00" stroke="#e5e7eb"/><text x="32" y="152.00" font-size="10" fill="#111827" text-anchor="end">200</text><line x1="40" y1="112.00" x2="860" y2="112.00" stroke="#e5e7eb"/><text x="32" y="116.00" font-size="10" fill="#111827" text-anchor="end">300</text><line x1="40" y1="76.00" x2="860" y2="76.00" stroke="#e5e7eb"/><text x="32" y="80.00" font-size="10" fill="#111827" text-anchor="end">400</text><line x1="40" y1="40.00" x2="860" y2="40.00" stroke="#e5e7eb"/><text x="32" y="44.00" font-size="10" fill="#111827" text-anchor="end">500</text>
    <line x1="40.00" y1="40" x2="40.00" y2="220" stroke="#e5e7eb" opacity="0.5"/><line x1="123.19" y1="40" x2="123.19" y2="220" stroke="#e5e7eb" opacity="0.5"/><line x1="206.38" y1="40" x2="206.38" y2="220" stroke="#e5e7eb" opacity="0.5"/><line x1="289.57" y1="40" x2="289.57" y2="220" stroke="#e5e7eb" opacity="0.5"/><line x1="372.75" y1="40" x2="372.75" y2="220" stroke="#e5e7eb" opacity="0.5"/><line x1="455.94" y1="40" x2="455.94" y2="220" stroke="#e5e7eb" opacity="0.5"/><line x1="539.13" y1="40" x2="539.13" y2="220" stroke="#e5e7eb" opacity="0.5"/><line x1="622.32" y1="40" x2="622.32" y2="220" stroke="#e5e7eb" opacity="0.5"/><line x1="705.51" y1="40" x2="705.51" y2="220" stroke="#e5e7eb" opacity="0.5"/><line x1="788.70" y1="40" x2="788.70" y2="220" stroke="#e5e7eb" opacity="0.5"/>
    <line x1="40" y1="220" x2="860" y2="220" stroke="#9ca3af"/>
    <line x1="40" y1="40"   x2="40"   y2="220" stroke="#9ca3af"/>
    <path d="M 40.00 219.28 L 51.88 204.52 L 63.77 178.96 L 75.65 167.80 L 87.54 160.60 L 99.42 146.56 L 111.30 147.28 L 123.19 167.44 L 135.07 167.44 L 146.96 167.44 L 158.84 167.44 L 170.72 167.44 L 182.61 159.88 L 194.49 159.88 L 206.38 159.88 L 218.26 159.88 L 230.14 156.64 L 242.03 156.64 L 253.91 151.96 L 265.80 151.96 L 277.68 151.96 L 289.57 150.16 L 301.45 150.16 L 313.33 150.16 L 325.22 150.16 L 337.10 150.16 L 348.99 150.16 L 360.87 150.16 L 372.75 150.16 L 384.64 150.16 L 396.52 147.64 L 408.41 147.64 L 420.29 147.64 L 432.17 147.64 L 444.06 147.64 L 455.94 147.64 L 467.83 143.32 L 479.71 143.32 L 491.59 137.92 L 503.48 137.92 L 515.36 138.64 L 527.25 138.64 L 539.13 131.44 L 551.01 131.44 L 562.90 130.72 L 574.78 130.72 L 586.67 106.24 L 598.55 104.08 L 610.43 104.08 L 622.32 104.08 L 634.20 104.08 L 646.09 103.72 L 657.97 103.72 L 669.86 103.72 L 681.74 103.72 L 693.62 96.52 L 705.51 96.52 L 717.39 93.64 L 729.28 93.64 L 741.16 97.24 L 753.04 97.24 L 764.93 95.80 L 776.81 95.80 L 788.70 95.80 L 800.58 95.80 L 812.46 91.12 L 824.35 91.12 L 836.23 91.12 L 848.12 91.12 L 860.00 91.48" fill="none" stroke="#111827" stroke-width="2"/>
    <circle cx="860.00" cy="91.48" r="3" fill="#111827"/>
    <text x="40.00" y="235.00" font-size="9" fill="#111827" text-anchor="middle" transform="rotate(-45 40.00 235.00)">02:36</text><text x="123.19" y="235.00" font-size="9" fill="#111827" text-anchor="middle" transform="rotate(-45 123.19 235.00)">23:15</text><text x="206.38" y="235.00" font-size="9" fill="#111827" text-anchor="middle" transform="rotate(-45 206.38 235.00)">01:29</text><text x="289.57" y="235.00" font-size="9" fill="#111827" text-anchor="middle" transform="rotate(-45 289.57 235.00)">01:53</text><text x="372.75" y="235.00" font-size="9" fill="#111827" text-anchor="middle" transform="rotate(-45 372.75 235.00)">02:06</text><text x="455.94" y="235.00" font-size="9" fill="#111827" text-anchor="middle" transform="rotate(-45 455.94 235.00)">00:25</text><text x="539.13" y="235.00" font-size="9" fill="#111827" text-anchor="middle" transform="rotate(-45 539.13 235.00)">02:35</text><text x="622.32" y="235.00" font-size="9" fill="#111827" text-anchor="middle" transform="rotate(-45 622.32 235.00)">03:02</text><text x="705.51" y="235.00" font-size="9" fill="#111827" text-anchor="middle" transform="rotate(-45 705.51 235.00)">11:13</text><text x="788.70" y="235.00" font-size="9" fill="#111827" text-anchor="middle" transform="rotate(-45 788.70 235.00)">18:25</text>
  </g>
</svg>