<svg xmlns="http://www.w3.org/2000/svg" width="900" height="290" style="font-family: -apple-system, BlinkMacSystemFont, 'Segoe UI', Helvetica, Arial, sans-serif;">
  <rect width="100%" height="100%" fill="#0d1117"/>
  <g>
    <line x1="40" y1="220.00" x2="860" y2="220.00" stroke="#30363d"/><text x="32" y="224.00" font-size="10" fill="#c9d1d9" text-anchor="end">0</text><line x1="40" y1="184.00" x2="860" y2="184.00" stroke="#30363d"/><text x="32" y="188.00" font-size="10" fill="#c9d1d9" text-anchor="end">100</text><line x1="40" y1="148.00" x2="860" y2="148.00" stroke="#30363d"/><text x="32" y="152.00" font-size="10" fill="#c9d1d9" text-anchor="end">200</text><line x1="40" y1="112.00" x2="860" y2="112.00" stroke="#30363d"/><text x="32" y="116.00" font-size="10" fill="#c9d1d9" text-anchor="end">300</text><line x1="40" y1="76.00" x2="860" y2="76.00" stroke="#30363d"/><text x="32" y="80.00" font-size="10" fill="#c9d1d9" text-anchor="end">400</text><line x1="40" y1="40.00" x2="860" y2="40.00" stroke="#30363d"/><text x="32" y="44.00" font-size="10" fill="#c9d1d9" text-anchor="end">500</text>
    <line x1="40.00" y1="40" x2="40.00" y2="220" stroke="#30363d" opacity="0.5"/><line x1="111.93" y1="40" x2="111.93" y2="220" stroke="#30363d" opacity="0.5"/><line x1="183.86" y1="40" x2="183.86" y2="220" stroke="#30363d" opacity="0.5"/><line x1="255.79" y1="40" x2="255.79" y2="220" stroke="#30363d" opacity="0.5"/><line x1="327.72" y1="40" x2="327.72" y2="220" stroke="#30363d" opacity="0.5"/><line x1="399.65" y1="40" x2="399.65" y2="220" stroke="#30363d" opacity="0.5"/><line x1="471.58" y1="40" x2="471.58" y2="220" stroke="#30363d" opacity="0.5"/><line x1="543.51" y1="40" x2="543.51" y2="220" stroke="#30363d" opacity="0.5"/><line x1="615.44" y1="40" x2="615.44" y2="220" stroke="#30363d" opacity="0.5"/><line x1="687.37" y1="40" x2="687.37" y2="220" stroke="#30363d" opacity="0.5"/><line x1="759.30" y1="40" x2="759.30" y2="220" stroke="#30363d" opacity="0.5"/><line x1="831.23" y1="40" x2="831.23" y2="220" stroke="#30363d" opacity="0.5"/>
    <line x1="40" y1="220" x2="860" y2="220" stroke="#30363d"/>
    <line x1="40" y1="40"   x2="40"   y2="220" stroke="#30363d"/>
    <path d="M 40.00 219.28 L 54.39 204.52 L 68.77 178.96 L 83.16 167.80 L 97.54 160.60 L 111.93 146.56 L 126.32 147.28 L 140.70 167.44 L 155.09 167.44 L 169.47 167.44 L 183.86 167.44 L 198.25 167.44 L 212.63 159.88 L 227.02 159.88 L 241.40 159.88 L 255.79 159.88 L 270.18 156.64 L 284.56 156.64 L 298.95 151.96 L 313.33 151.96 L 327.72 151.96 L 342.11 150.16 L 356.49 150.16 L 370.88 150.16 L 385.26 150.16 L 399.65 150.16 L 414.04 150.16 L 428.42 150.16 L 442.81 150.16 L 457.19 150.16 L 471.58 147.64 L 485.96 147.64 L 500.35 147.64 L 514.74 147.64 L 529.12 147.64 L 543.51 147.64 L 557.89 143.32 L 572.28 143.32 L 586.67 137.92 L 601.05 137.92 L 615.44 138.64 L 629.82 138.64 L 644.21 131.44 L 658.60 131.44 L 672.98 130.72 L 687.37 130.72 L 701.75 106.24 L 716.14 104.08 L 730.53 104.08 L 744.91 104.08 L 759.30 104.08 L 773.68 103.72 L 788.07 103.72 L 802.46 103.72 L 816.84 103.72 L 831.23 96.52 L 845.61 96.52 L 860.00 93.64" fill="none" stroke="#3fb950" stroke-width="2"/>
    <circle cx="860.00" cy="93.64" r="3" fill="#3fb950"/>
    <text x="40.00" y="235.00" font-size="9" fill="#c9d1d9" text-anchor="middle" transform="rotate(-45 40.00 235.00)">02:36</text><text x="111.93" y="235.00" font-size="9" fill="#c9d1d9" text-anchor="middle" transform="rotate(-45 111.93 235.00)">23:11</text><text x="183.86" y="235.00" font-size="9" fill="#c9d1d9" text-anchor="middle" transform="rotate(-45 183.86 235.00)">01:21</text><text x="255.79" y="235.00" font-size="9" fill="#c9d1d9" text-anchor="middle" transform="rotate(-45 255.79 235.00)">23:29</text><text x="327.72" y="235.00" font-size="9" fill="#c9d1d9" text-anchor="middle" transform="rotate(-45 327.72 235.00)">23:51</text><text x="399.65" y="235.00" font-size="9" fill="#c9d1d9" text-anchor="middle" transform="rotate(-45 399.65 235.00)">23:56</text><text x="471.58" y="235.00" font-size="9" fill="#c9d1d9" text-anchor="middle" transform="rotate(-45 471.58 235.00)">02:08</text><text x="543.51" y="235.00" font-size="9" fill="#c9d1d9" text-anchor="middle" transform="rotate(-45 543.51 235.00)">00:25</text><text x="615.44" y="235.00" font-size="9" fill="#c9d1d9" text-anchor="middle" transform="rotate(-45 615.44 235.00)">02:35</text><text x="687.37" y="235.00" font-size="9" fill="#c9d1d9" text-anchor="middle" transform="rotate(-45 687.37 235.00)">00:40</text><text x="759.30" y="235.00" font-size="9" fill="#c9d1d9" text-anchor="middle" transform="rotate(-45 759.30 235.00)">01:03</text><text x="831.23" y="235.00" font-size="9" fill="#c9d1d9" text-anchor="middle" transform="rotate(-45 831.23 235.00)">13:12</text>
  </g>
</svg>