<svg xmlns="http://www.w3.org/2000/svg" width="900" height="290" style="font-family: -apple-system, BlinkMacSystemFont, 'Segoe UI', Helvetica, Arial, sans-serif;">
  <rect width="100%" height="100%" fill="white"/>
  <g>
    <line x1="40" y1="220.00" x2="860" y2="220.00" stroke="#e5e7eb"/><text x="32" y="224.00" font-size="10" fill="#111827" text-anchor="end">0</text><line x1="40" y1="175.00" x2="860" y2="175.00" stroke="#e5e7eb"/><text x="32" y="179.00" font-size="10" fill="#111827" text-anchor="end">125</text><line x1="40" y1="130.00" x2="860" y2="130.00" stroke="#e5e7eb"/><text x="32" y="134.00" font-size="10" fill="#111827" text-anchor="end">250</text><line x1="40" y1="85.00" x2="860" y2="85.00" stroke="#e5e7eb"/><text x="32" y="89.00" font-size="10" fill="#111827" text-anchor="end">375</text><line x1="40" y1="40.00" x2="860" y2="40.00" stroke="#e5e7eb"/><text x="32" y="44.00" font-size="10" fill="#111827" text-anchor="end">500</text>
    <line x1="40.00" y1="40" x2="40.00" y2="220" stroke="#e5e7eb" opacity="0.5"/><line x1="120.85" y1="40" x2="120.85" y2="220" stroke="#e5e7eb" opacity="0.5"/><line x1="201.69" y1="40" x2="201.69" y2="220" stroke="#e5e7eb" opacity="0.5"/><line x1="282.54" y1="40" x2="282.54" y2="220" stroke="#e5e7eb" opacity="0.5"/><line x1="363.38" y1="40" x2="363.38" y2="220" stroke="#e5e7eb" opacity="0.5"/><line x1="444.23" y1="40" x2="444.23" y2="220" stroke="#e5e7eb" opacity="0.5"/><line x1="525.07" y1="40" x2="525.07" y2="220" stroke="#e5e7eb" opacity="0.5"/><line x1="605.92" y1="40" x2="605.92" y2="220" stroke="#e5e7eb" opacity="0.5"/><line x1="686.76" y1="40" x2="686.76" y2="220" stroke="#e5e7eb" opacity="0.5"/><line x1="767.61" y1="40" x2="767.61" y2="220" stroke="#e5e7eb" opacity="0.5"/><line x1="848.45" y1="40" x2="848.45" y2="220" stroke="#e5e7eb" opacity="0.5"/>
    <line x1="40" y1="220" x2="860" y2="220" stroke="#9ca3af"/>
    <line x1="40" y1="40"   x2="40"   y2="220" stroke="#9ca3af"/>
    <path d="M 40.00 219.28 L 51.55 204.52 L 63.10 178.96 L 74.65 167.80 L 86.20 160.60 L 97.75 146.56 L 109.30 147.28 L 120.85 167.44 L 132.39 167.44 L 143.94 167.44 L 155.49 167.44 L 167.04 167.44 L 178.59 159.88 L 190.14 159.88 L 201.69 159.88 L 213.24 159.88 L 224.79 156.64 L 236.34 156.64 L 247.89 151.96 L 259.44 151.96 L 270.99 151.96 L 282.54 150.16 L 294.08 150.16 L 305.63 150.16 L 317.18 150.16 L 328.73 150.16 L 340.28 150.16 L 351.83 150.16 L 363.38 150.16 L 374.93 150.16 L 386.48 147.64 L 398.03 147.64 L 409.58 147.64 L 421.13 147.64 L 432.68 147.64 L 444.23 147.64 L 455.77 143.32 L 467.32 143.32 L 478.87 137.92 L 490.42 137.92 L 501.97 138.64 L 513.52 138.64 L 525.07 131.44 L 536.62 131.44 L 548.17 130.72 L 559.72 130.72 L 571.27 106.24 L 582.82 104.08 L 594.37 104.08 L 605.92 104.08 L 617.46 104.08 L 629.01 103.72 L 640.56 103.72 L 652.11 103.72 L 663.66 103.72 L 675.21 96.52 L 686.76 96.52 L 698.31 93.64 L 709.86 93.64 L 721.41 97.24 L 732.96 97.24 L 744.51 95.80 L 756.06 95.80 L 767.61 95.80 L 779.15 95.80 L 790.70 91.12 L 802.25 91.12 L 813.80 91.12 L 825.35 91.12 L 836.90 91.48 L 848.45 91.48 L 860.00 75.64" fill="none" stroke="#111827" stroke-width="2"/>
    <circle cx="860.00" cy="75.64" r="3" fill="#111827"/>
    <text x="40.00" y="235.00" font-size="9" fill="#111827" text-anchor="middle" transform="rotate(-45 40.00 235.00)">02:36</text><text x="120.85" y="235.00" font-size="9" fill="#111827" text-anchor="middle" transform="rotate(-45 120.85 235.00)">23:15</text><text x="201.69" y="235.00" font-size="9" fill="#111827" text-anchor="middle" transform="rotate(-45 201.69 235.00)">01:29</text><text x="282.54" y="235.00" font-size="9" fill="#111827" text-anchor="middle" transform="rotate(-45 282.54 235.00)">01:53</text><text x="363.38" y="235.00" font-size="9" fill="#111827" text-anchor="middle" transform="rotate(-45 363.38 235.00)">02:06</text><text x="444.23" y="235.00" font-size="9" fill="#111827" text-anchor="middle" transform="rotate(-45 444.23 235.00)">00:25</text><text x="525.07" y="235.00" font-size="9" fill="#111827" text-anchor="middle" transform="rotate(-45 525.07 235.00)">02:35</text><text x="605.92" y="235.00" font-size="9" fill="#111827" text-anchor="middle" transform="rotate(-45 605.92 235.00)">03:02</text><text x="686.76" y="235.00" font-size="9" fill="#111827" text-anchor="middle" transform="rotate(-45 686.76 235.00)">11:13</text><text x="767.61" y="235.00" font-size="9" fill="#111827" text-anchor="middle" transform="rotate(-45 767.61 235.00)">18:25</text><text x="848.45" y="235.00" font-size="9" fill="#111827" text-anchor="middle" transform="rotate(-45 848.45 235.00)">19:32</text>
  </g>
</svg>