<svg xmlns="http://www.w3.org/2000/svg" width="900" height="290" style="font-family: -apple-system, BlinkMacSystemFont, 'Segoe UI', Helvetica, Arial, sans-serif;">
  <rect width="100%" height="100%" fill="#0d1117"/>
  <g>
    <line x1="40" y1="220.00" x2="860" y2="220.00" stroke="#30363d"/><text x="32" y="224.00" font-size="10" fill="#c9d1d9" text-anchor="end">0</text><line x1="40" y1="184.00" x2="860" y2="184.00" stroke="#30363d"/><text x="32" y="188.00" font-size="10" fill="#c9d1d9" text-anchor="end">50</text><line x1="40" y1="148.00" x2="860" y2="148.00" stroke="#30363d"/><text x="32" y="152.00" font-size="10" fill="#c9d1d9" text-anchor="end">100</text><line x1="40" y1="112.00" x2="860" y2="112.00" stroke="#30363d"/><text x="32" y="116.00" font-size="10" fill="#c9d1d9" text-anchor="end">150</text><line x1="40" y1="76.00" x2="860" y2="76.00" stroke="#30363d"/><text x="32" y="80.00" font-size="10" fill="#c9d1d9" text-anchor="end">200</text><line x1="40" y1="40.00" x2="860" y2="40.00" stroke="#30363d"/><text x="32" y="44.00" font-size="10" fill="#c9d1d9" text-anchor="end">250</text>
    <line x1="40.00" y1="40" x2="40.00" y2="220" stroke="#30363d" opacity="0.5"/><line x1="112.35" y1="40" x2="112.35" y2="220" stroke="#30363d" opacity="0.5"/><line x1="184.71" y1="40" x2="184.71" y2="220" stroke="#30363d" opacity="0.5"/><line x1="257.06" y1="40" x2="257.06" y2="220" stroke="#30363d" opacity="0.5"/><line x1="329.41" y1="40" x2="329.41" y2="220" stroke="#30363d" opacity="0.5"/><line x1="401.76" y1="40" x2="401.76" y2="220" stroke="#30363d" opacity="0.5"/><line x1="474.12" y1="40" x2="474.12" y2="220" stroke="#30363d" opacity="0.5"/><line x1="546.47" y1="40" x2="546.47" y2="220" stroke="#30363d" opacity="0.5"/><line x1="618.82" y1="40" x2="618.82" y2="220" stroke="#30363d" opacity="0.5"/><line x1="691.18" y1="40" x2="691.18" y2="220" stroke="#30363d" opacity="0.5"/><line x1="763.53" y1="40" x2="763.53" y2="220" stroke="#30363d" opacity="0.5"/><line x1="835.88" y1="40" x2="835.88" y2="220" stroke="#30363d" opacity="0.5"/>
    <line x1="40" y1="220" x2="860" y2="220" stroke="#30363d"/>
    <line x1="40" y1="40"   x2="40"   y2="220" stroke="#30363d"/>
    <path d="M 40.00 218.56 L 64.12 189.04 L 88.24 137.92 L 112.35 115.60 L 136.47 101.20 L 160.59 73.12 L 184.71 74.56 L 208.82 114.88 L 232.94 114.88 L 257.06 114.88 L 281.18 114.88 L 305.29 114.88 L 329.41 99.76 L 353.53 99.76 L 377.65 99.76 L 401.76 99.76 L 425.88 93.28 L 450.00 93.28 L 474.12 83.92 L 498.24 83.92 L 522.35 83.92 L 546.47 80.32 L 570.59 80.32 L 594.71 80.32 L 618.82 80.32 L 642.94 80.32 L 667.06 80.32 L 691.18 80.32 L 715.29 80.32 L 739.41 80.32 L 763.53 75.28 L 787.65 75.28 L 811.76 75.28 L 835.88 75.28 L 860.00 75.28" fill="none" stroke="#3fb950" stroke-width="2"/>
    <circle cx="860.00" cy="75.28" r="3" fill="#3fb950"/>
    <text x="40.00" y="235.00" font-size="9" fill="#c9d1d9" text-anchor="middle" transform="rotate(-45 40.00 235.00)">02:36</text><text x="112.35" y="235.00" font-size="9" fill="#c9d1d9" text-anchor="middle" transform="rotate(-45 112.35 235.00)">03:03</text><text x="184.71" y="235.00" font-size="9" fill="#c9d1d9" text-anchor="middle" transform="rotate(-45 184.71 235.00)">01:14</text><text x="257.06" y="235.00" font-size="9" fill="#c9d1d9" text-anchor="middle" transform="rotate(-45 257.06 235.00)">23:18</text><text x="329.41" y="235.00" font-size="9" fill="#c9d1d9" text-anchor="middle" transform="rotate(-45 329.41 235.00)">01:26</text><text x="401.76" y="235.00" font-size="9" fill="#c9d1d9" text-anchor="middle" transform="rotate(-45 401.76 235.00)">23:29</text><text x="474.12" y="235.00" font-size="9" fill="#c9d1d9" text-anchor="middle" transform="rotate(-45 474.12 235.00)">01:49</text><text x="546.47" y="235.00" font-size="9" fill="#c9d1d9" text-anchor="middle" transform="rotate(-45 546.47 235.00)">01:53</text><text x="618.82" y="235.00" font-size="9" fill="#c9d1d9" text-anchor="middle" transform="rotate(-45 618.82 235.00)">01:55</text><text x="691.18" y="235.00" font-size="9" fill="#c9d1d9" text-anchor="middle" transform="rotate(-45 691.18 235.00)">00:05</text><text x="763.53" y="235.00" font-size="9" fill="#c9d1d9" text-anchor="middle" transform="rotate(-45 763.53 235.00)">02:08</text><text x="835.88" y="235.00" font-size="9" fill="#c9d1d9" text-anchor="middle" transform="rotate(-45 835.88 235.00)">00:10</text>
  </g>
</svg>