<svg xmlns="http://www.w3.org/2000/svg" width="900" height="290" style="font-family: -apple-system, BlinkMacSystemFont, 'Segoe UI', Helvetica, Arial, sans-serif;">
  <rect width="100%" height="100%" fill="#0d1117"/>
  <g>
    <line x1="40.00" y1="40" x2="40.00" y2="220" stroke="#30363d" opacity="0.5"/><line x1="74.17" y1="40" x2="74.17" y2="220" stroke="#30363d" opacity="0.5"/><line x1="108.33" y1="40" x2="108.33" y2="220" stroke="#30363d" opacity="0.5"/><line x1="142.50" y1="40" x2="142.50" y2="220" stroke="#30363d" opacity="0.5"/><line x1="176.67" y1="40" x2="176.67" y2="220" stroke="#30363d" opacity="0.5"/><line x1="210.83" y1="40" x2="210.83" y2="220" stroke="#30363d" opacity="0.5"/><line x1="245.00" y1="40" x2="245.00" y2="220" stroke="#30363d" opacity="0.5"/><line x1="279.17" y1="40" x2="279.17" y2="220" stroke="#30363d" opacity="0.5"/><line x1="313.33" y1="40" x2="313.33" y2="220" stroke="#30363d" opacity="0.5"/><line x1="347.50" y1="40" x2="347.50" y2="220" stroke="#30363d" opacity="0.5"/><line x1="381.67" y1="40" x2="381.67" y2="220" stroke="#30363d" opacity="0.5"/><line x1="415.83" y1="40" x2="415.83" y2="220" stroke="#30363d" opacity="0.5"/><line x1="450.00" y1="40" x2="450.00" y2="220" stroke="#30363d" opacity="0.5"/><line x1="484.17" y1="40" x2="484.17" y2="220" stroke="#30363d" opacity="0.5"/><line x1="518.33" y1="40" x2="518.33" y2="220" stroke="#30363d" opacity="0.5"/><line x1="552.50" y1="40" x2="552.50" y2="220" stroke="#30363d" opacity="0.5"/><line x1="586.67" y1="40" x2="586.67" y2="220" stroke="#30363d" opacity="0.5"/><line x1="620.83" y1="40" x2="620.83" y2="220" stroke="#30363d" opacity="0.5"/><line x1="655.00" y1="40" x2="655.00" y2="220" stroke="#30363d" opacity="0.5"/><line x1="689.17" y1="40" x2="689.17" y2="220" stroke="#30363d" opacity="0.5"/><line x1="723.33" y1="40" x2="723.33" y2="220" stroke="#30363d" opacity="0.5"/><line x1="757.50" y1="40" x2="757.50" y2="220" stroke="#30363d" opacity="0.5"/><line x1="791.67" y1="40" x2="791.67" y2="220" stroke="#30363d" opacity="0.5"/><line x1="825.83" y1="40" x2="825.83" y2="220" stroke="#30363d" opacity="0.5"/><line x1="860.00" y1="40" x2="860.00" y2="220" stroke="#30363d" opacity="0.5"/>
    <line x1="40" y1="220.00" x2="860" y2="220.00" stroke="#30363d"/><text x="32" y="224.00" font-size="10" fill="#c9d1d9" text-anchor="end">0</text><line x1="40" y1="184.00" x2="860" y2="184.00" stroke="#30363d"/><text x="32" y="188.00" font-size="10" fill="#c9d1d9" text-anchor="end">50</text><line x1="40" y1="148.00" x2="860" y2="148.00" stroke="#30363d"/><text x="32" y="152.00" font-size="10" fill="#c9d1d9" text-anchor="end">100</text><line x1="40" y1="112.00" x2="860" y2="112.00" stroke="#30363d"/><text x="32" y="116.00" font-size="10" fill="#c9d1d9" text-anchor="end">150</text><line x1="40" y1="76.00" x2="860" y2="76.00" stroke="#30363d"/><text x="32" y="80.00" font-size="10" fill="#c9d1d9" text-anchor="end">200</text><line x1="40" y1="40.00" x2="860" y2="40.00" stroke="#30363d"/><text x="32" y="44.00" font-size="10" fill="#c9d1d9" text-anchor="end">250</text>
    <line x1="40" y1="220" x2="860" y2="220" stroke="#30363d"/>
    <line x1="40" y1="40"   x2="40"   y2="220" stroke="#30363d"/>
    <path d="M 40.00 218.56 L 74.17 189.04 L 108.33 137.92 L 142.50 115.60 L 176.67 101.20 L 210.83 73.12 L 245.00 74.56 L 279.17 114.88 L 313.33 114.88 L 347.50 114.88 L 381.67 114.88 L 415.83 114.88 L 450.00 99.76 L 484.17 99.76 L 518.33 99.76 L 552.50 99.76 L 586.67 93.28 L 620.83 93.28 L 655.00 83.92 L 689.17 83.92 L 723.33 83.92 L 757.50 80.32 L 791.67 80.32 L 825.83 80.32 L 860.00 80.32" fill="none" stroke="#3fb950" stroke-width="2"/>
    <circle cx="860.00" cy="80.32" r="3" fill="#3fb950"/>
    <text x="40.00" y="235.00" font-size="9" fill="#c9d1d9" text-anchor="middle" transform="rotate(-45 40.00 235.00)">02:36</text><text x="108.33" y="235.00" font-size="9" fill="#c9d1d9" text-anchor="middle" transform="rotate(-45 108.33 235.00)">02:41</text><text x="176.67" y="235.00" font-size="9" fill="#c9d1d9" text-anchor="middle" transform="rotate(-45 176.67 235.00)">01:10</text><text x="245.00" y="235.00" font-size="9" fill="#c9d1d9" text-anchor="middle" transform="rotate(-45 245.00 235.00)">01:14</text><text x="313.33" y="235.00" font-size="9" fill="#c9d1d9" text-anchor="middle" transform="rotate(-45 313.33 235.00)">01:17</text><text x="381.67" y="235.00" font-size="9" fill="#c9d1d9" text-anchor="middle" transform="rotate(-45 381.67 235.00)">01:21</text><text x="450.00" y="235.00" font-size="9" fill="#c9d1d9" text-anchor="middle" transform="rotate(-45 450.00 235.00)">01:26</text><text x="518.33" y="235.00" font-size="9" fill="#c9d1d9" text-anchor="middle" transform="rotate(-45 518.33 235.00)">01:29</text><text x="586.67" y="235.00" font-size="9" fill="#c9d1d9" text-anchor="middle" transform="rotate(-45 586.67 235.00)">01:44</text><text x="655.00" y="235.00" font-size="9" fill="#c9d1d9" text-anchor="middle" transform="rotate(-45 655.00 235.00)">01:49</text><text x="723.33" y="235.00" font-size="9" fill="#c9d1d9" text-anchor="middle" transform="rotate(-45 723.33 235.00)">23:51</text><text x="791.67" y="235.00" font-size="9" fill="#c9d1d9" text-anchor="middle" transform="rotate(-45 791.67 235.00)">23:54</text><text x="860.00" y="235.00" font-size="9" fill="#c9d1d9" text-anchor="middle" transform="rotate(-45 860.00 235.00)">01:55</text>
  </g>
</svg>