<svg xmlns="http://www.w3.org/2000/svg" width="900" height="290" style="font-family: -apple-system, BlinkMacSystemFont, 'Segoe UI', Helvetica, Arial, sans-serif;">
  <rect width="100%" height="100%" fill="#0d1117"/>
  <g>
    <line x1="40" y1="220.00" x2="860" y2="220.00" stroke="#30363d"/><text x="32" y="224.00" font-size="10" fill="#c9d1d9" text-anchor="end">0</text><line x1="40" y1="184.00" x2="860" y2="184.00" stroke="#30363d"/><text x="32" y="188.00" font-size="10" fill="#c9d1d9" text-anchor="end">100</text><line x1="40" y1="148.00" x2="860" y2="148.00" stroke="#30363d"/><text x="32" y="152.00" font-size="10" fill="#c9d1d9" text-anchor="end">200</text><line x1="40" y1="112.00" x2="860" y2="112.00" stroke="#30363d"/><text x="32" y="116.00" font-size="10" fill="#c9d1d9" text-anchor="end">300</text><line x1="40" y1="76.00" x2="860" y2="76.00" stroke="#30363d"/><text x="32" y="80.00" font-size="10" fill="#c9d1d9" text-anchor="end">400</text><line x1="40" y1="40.00" x2="860" y2="40.00" stroke="#30363d"/><text x="32" y="44.00" font-size="10" fill="#c9d1d9" text-anchor="end">500</text>
    <line x1="40.00" y1="40" x2="40.00" y2="220" stroke="#30363d" opacity="0.5"/><line x1="120.39" y1="40" x2="120.39" y2="220" stroke="#30363d" opacity="0.5"/><line x1="200.78" y1="40" x2="200.78" y2="220" stroke="#30363d" opacity="0.5"/><line x1="281.18" y1="40" x2="281.18" y2="220" stroke="#30363d" opacity="0.5"/><line x1="361.57" y1="40" x2="361.57" y2="220" stroke="#30363d" opacity="0.5"/><line x1="441.96" y1="40" x2="441.96" y2="220" stroke="#30363d" opacity="0.5"/><line x1="522.35" y1="40" x2="522.35" y2="220" stroke="#30363d" opacity="0.5"/><line x1="602.75" y1="40" x2="602.75" y2="220" stroke="#30363d" opacity="0.5"/><line x1="683.14" y1="40" x2="683.14" y2="220" stroke="#30363d" opacity="0.5"/><line x1="763.53" y1="40" x2="763.53" y2="220" stroke="#30363d" opacity="0.5"/><line x1="843.92" y1="40" x2="843.92" y2="220" stroke="#30363d" opacity="0.5"/>
    <line x1="40" y1="220" x2="860" y2="220" stroke="#30363d"/>
    <line x1="40" y1="40"   x2="40"   y2="220" stroke="#30363d"/>
    <path d="M 40.00 219.28 L 56.08 204.52 L 72.16 178.96 L 88.24 167.80 L 104.31 160.60 L 120.39 146.56 L 136.47 147.28 L 152.55 167.44 L 168.63 167.44 L 184.71 167.44 L 200.78 167.44 L 216.86 167.44 L 232.94 159.88 L 249.02 159.88 L 265.10 159.88 L 281.18 159.88 L 297.25 156.64 L 313.33 156.64 L 329.41 151.96 L 345.49 151.96 L 361.57 151.96 L 377.65 150.16 L 393.73 150.16 L 409.80 150.16 L 425.88 150.16 L 441.96 150.16 L 458.04 150.16 L 474.12 150.16 L 490.20 150.16 L 506.27 150.16 L 522.35 147.64 L 538.43 147.64 L 554.51 147.64 L 570.59 147.64 L 586.67 147.64 L 602.75 147.64 L 618.82 143.32 L 634.90 143.32 L 650.98 137.92 L 667.06 137.92 L 683.14 138.64 L 699.22 138.64 L 715.29 131.44 L 731.37 131.44 L 747.45 130.72 L 763.53 130.72 L 779.61 106.24 L 795.69 104.08 L 811.76 104.08 L 827.84 104.08 L 843.92 104.08 L 860.00 103.72" fill="none" stroke="#3fb950" stroke-width="2"/>
    <circle cx="860.00" cy="103.72" r="3" fill="#3fb950"/>
    <text x="40.00" y="235.00" font-size="9" fill="#c9d1d9" text-anchor="middle" transform="rotate(-45 40.00 235.00)">02:36</text><text x="120.39" y="235.00" font-size="9" fill="#c9d1d9" text-anchor="middle" transform="rotate(-45 120.39 235.00)">23:11</text><text x="200.78" y="235.00" font-size="9" fill="#c9d1d9" text-anchor="middle" transform="rotate(-45 200.78 235.00)">01:21</text><text x="281.18" y="235.00" font-size="9" fill="#c9d1d9" text-anchor="middle" transform="rotate(-45 281.18 235.00)">23:29</text><text x="361.57" y="235.00" font-size="9" fill="#c9d1d9" text-anchor="middle" transform="rotate(-45 361.57 235.00)">23:51</text><text x="441.96" y="235.00" font-size="9" fill="#c9d1d9" text-anchor="middle" transform="rotate(-45 441.96 235.00)">23:56</text><text x="522.35" y="235.00" font-size="9" fill="#c9d1d9" text-anchor="middle" transform="rotate(-45 522.35 235.00)">02:08</text><text x="602.75" y="235.00" font-size="9" fill="#c9d1d9" text-anchor="middle" transform="rotate(-45 602.75 235.00)">00:25</text><text x="683.14" y="235.00" font-size="9" fill="#c9d1d9" text-anchor="middle" transform="rotate(-45 683.14 235.00)">02:35</text><text x="763.53" y="235.00" font-size="9" fill="#c9d1d9" text-anchor="middle" transform="rotate(-45 763.53 235.00)">00:40</text><text x="843.92" y="235.00" font-size="9" fill="#c9d1d9" text-anchor="middle" transform="rotate(-45 843.92 235.00)">01:03</text>
  </g>
</svg>