<svg xmlns="http://www.w3.org/2000/svg" width="900" height="290" style="font-family: -apple-system, BlinkMacSystemFont, 'Segoe UI', Helvetica, Arial, sans-serif;">
  <rect width="100%" height="100%" fill="white"/>
  <g>
    <line x1="40" y1="220.00" x2="860" y2="220.00" stroke="#e5e7eb"/><text x="32" y="224.00" font-size="10" fill="#111827" text-anchor="end">0</text><line x1="40" y1="184.00" x2="860" y2="184.00" stroke="#e5e7eb"/><text x="32" y="188.00" font-size="10" fill="#111827" text-anchor="end">100</text><line x1="40" y1="148.00" x2="860" y2="148.00" stroke="#e5e7eb"/><text x="32" y="152.00" font-size="10" fill="#111827" text-anchor="end">200</text><line x1="40" y1="112.00" x2="860" y2="112.00" stroke="#e5e7eb"/><text x="32" y="116.00" font-size="10" fill="#111827" text-anchor="end">300</text><line x1="40" y1="76.00" x2="860" y2="76.00" stroke="#e5e7eb"/><text x="32" y="80.00" font-size="10" fill="#111827" text-anchor="end">400</text><line x1="40" y1="40.00" x2="860" y2="40.00" stroke="#e5e7eb"/><text x="32" y="44.00" font-size="10" fill="#111827" text-anchor="end">500</text>
    <line x1="40.00" y1="40" x2="40.00" y2="220" stroke="#e5e7eb" opacity="0.5"/><line x1="118.10" y1="40" x2="118.10" y2="220" stroke="#e5e7eb" opacity="0.5"/><line x1="196.19" y1="40" x2="196.19" y2="220" stroke="#e5e7eb" opacity="0.5"/><line x1="274.29" y1="40" x2="274.29" y2="220" stroke="#e5e7eb" opacity="0.5"/><line x1="352.38" y1="40" x2="352.38" y2="220" stroke="#e5e7eb" opacity="0.5"/><line x1="430.48" y1="40" x2="430.48" y2="220" stroke="#e5e7eb" opacity="0.5"/><line x1="508.57" y1="40" x2="508.57" y2="220" stroke="#e5e7eb" opacity="0.5"/><line x1="586.67" y1="40" x2="586.67" y2="220" stroke="#e5e7eb" opacity="0.5"/><line x1="664.76" y1="40" x2="664.76" y2="220" stroke="#e5e7eb" opacity="0.5"/><line x1="742.86" y1="40" x2="742.86" y2="220" stroke="#e5e7eb" opacity="0.5"/><line x1="820.95" y1="40" x2="820.95" y2="220" stroke="#e5e7eb" opacity="0.5"/>
    <line x1="40" y1="220" x2="860" y2="220" stroke="#9ca3af"/>
    <line x1="40" y1="40"   x2="40"   y2="220" stroke="#9ca3af"/>
    <path d="M 40.00 219.28 L 53.02 204.52 L 66.03 178.96 L 79.05 167.80 L 92.06 160.60 L 105.08 146.56 L 118.10 147.28 L 131.11 167.44 L 144.13 167.44 L 157.14 167.44 L 170.16 167.44 L 183.17 167.44 L 196.19 159.88 L 209.21 159.88 L 222.22 159.88 L 235.24 159.88 L 248.25 156.64 L 261.27 156.64 L 274.29 151.96 L 287.30 151.96 L 300.32 151.96 L 313.33 150.16 L 326.35 150.16 L 339.37 150.16 L 352.38 150.16 L 365.40 150.16 L 378.41 150.16 L 391.43 150.16 L 404.44 150.16 L 417.46 150.16 L 430.48 147.64 L 443.49 147.64 L 456.51 147.64 L 469.52 147.64 L 482.54 147.64 L 495.56 147.64 L 508.57 143.32 L 521.59 143.32 L 534.60 137.92 L 547.62 137.92 L 560.63 138.64 L 573.65 138.64 L 586.67 131.44 L 599.68 131.44 L 612.70 130.72 L 625.71 130.72 L 638.73 106.24 L 651.75 104.08 L 664.76 104.08 L 677.78 104.08 L 690.79 104.08 L 703.81 103.72 L 716.83 103.72 L 729.84 103.72 L 742.86 103.72 L 755.87 96.52 L 768.89 96.52 L 781.90 93.64 L 794.92 93.64 L 807.94 97.24 L 820.95 97.24 L 833.97 95.80 L 846.98 95.80 L 860.00 95.80" fill="none" stroke="#111827" stroke-width="2"/>
    <circle cx="860.00" cy="95.80" r="3" fill="#111827"/>
    <text x="40.00" y="235.00" font-size="9" fill="#111827" text-anchor="middle" transform="rotate(-45 40.00 235.00)">02:36</text><text x="118.10" y="235.00" font-size="9" fill="#111827" text-anchor="middle" transform="rotate(-45 118.10 235.00)">01:14</text><text x="196.19" y="235.00" font-size="9" fill="#111827" text-anchor="middle" transform="rotate(-45 196.19 235.00)">01:26</text><text x="274.29" y="235.00" font-size="9" fill="#111827" text-anchor="middle" transform="rotate(-45 274.29 235.00)">01:49</text><text x="352.38" y="235.00" font-size="9" fill="#111827" text-anchor="middle" transform="rotate(-45 352.38 235.00)">01:55</text><text x="430.48" y="235.00" font-size="9" fill="#111827" text-anchor="middle" transform="rotate(-45 430.48 235.00)">02:08</text><text x="508.57" y="235.00" font-size="9" fill="#111827" text-anchor="middle" transform="rotate(-45 508.57 235.00)">02:29</text><text x="586.67" y="235.00" font-size="9" fill="#111827" text-anchor="middle" transform="rotate(-45 586.67 235.00)">02:35</text><text x="664.76" y="235.00" font-size="9" fill="#111827" text-anchor="middle" transform="rotate(-45 664.76 235.00)">01:00</text><text x="742.86" y="235.00" font-size="9" fill="#111827" text-anchor="middle" transform="rotate(-45 742.86 235.00)">01:07</text><text x="820.95" y="235.00" font-size="9" fill="#111827" text-anchor="middle" transform="rotate(-45 820.95 235.00)">15:58</text>
  </g>
</svg>