<svg xmlns="http://www.w3.org/2000/svg" width="900" height="290" style="font-family: -apple-system, BlinkMacSystemFont, 'Segoe UI', Helvetica, Arial, sans-serif;">
  <rect width="100%" height="100%" fill="#0d1117"/>
  <g>
    <line x1="40" y1="220.00" x2="860" y2="220.00" stroke="#30363d"/><text x="32" y="224.00" font-size="10" fill="#c9d1d9" text-anchor="end">0</text><line x1="40" y1="175.00" x2="860" y2="175.00" stroke="#30363d"/><text x="32" y="179.00" font-size="10" fill="#c9d1d9" text-anchor="end">125</text><line x1="40" y1="130.00" x2="860" y2="130.00" stroke="#30363d"/><text x="32" y="134.00" font-size="10" fill="#c9d1d9" text-anchor="end">250</text><line x1="40" y1="85.00" x2="860" y2="85.00" stroke="#30363d"/><text x="32" y="89.00" font-size="10" fill="#c9d1d9" text-anchor="end">375</text><line x1="40" y1="40.00" x2="860" y2="40.00" stroke="#30363d"/><text x="32" y="44.00" font-size="10" fill="#c9d1d9" text-anchor="end">500</text>
    <line x1="40.00" y1="40" x2="40.00" y2="220" stroke="#30363d" opacity="0.5"/><line x1="113.59" y1="40" x2="113.59" y2="220" stroke="#30363d" opacity="0.5"/><line x1="187.18" y1="40" x2="187.18" y2="220" stroke="#30363d" opacity="0.5"/><line x1="260.77" y1="40" x2="260.77" y2="220" stroke="#30363d" opacity="0.5"/><line x1="334.36" y1="40" x2="334.36" y2="220" stroke="#30363d" opacity="0.5"/><line x1="407.95" y1="40" x2="407.95" y2="220" stroke="#30363d" opacity="0.5"/><line x1="481.54" y1="40" x2="481.54" y2="220" stroke="#30363d" opacity="0.5"/><line x1="555.13" y1="40" x2="555.13" y2="220" stroke="#30363d" opacity="0.5"/><line x1="628.72" y1="40" x2="628.72" y2="220" stroke="#30363d" opacity="0.5"/><line x1="702.31" y1="40" x2="702.31" y2="220" stroke="#30363d" opacity="0.5"/><line x1="775.90" y1="40" x2="775.90" y2="220" stroke="#30363d" opacity="0.5"/><line x1="849.49" y1="40" x2="849.49" y2="220" stroke="#30363d" opacity="0.5"/>
    <line x1="40" y1="220" x2="860" y2="220" stroke="#30363d"/>
    <line x1="40" y1="40"   x2="40"   y2="220" stroke="#30363d"/>
    <path d="M 40.00 219.28 L 50.51 204.52 L 61.03 178.96 L 71.54 167.80 L 82.05 160.60 L 92.56 146.56 L 103.08 147.28 L 113.59 167.44 L 124.10 167.44 L 134.62 167.44 L 145.13 167.44 L 155.64 167.44 L 166.15 159.88 L 176.67 159.88 L 187.18 159.88 L 197.69 159.88 L 208.21 156.64 L 218.72 156.64 L 229.23 151.96 L 239.74 151.96 L 250.26 151.96 L 260.77 150.16 L 271.28 150.16 L 281.79 150.16 L 292.31 150.16 L 302.82 150.16 L 313.33 150.16 L 323.85 150.16 L 334.36 150.16 L 344.87 150.16 L 355.38 147.64 L 365.90 147.64 L 376.41 147.64 L 386.92 147.64 L 397.44 147.64 L 407.95 147.64 L 418.46 143.32 L 428.97 143.32 L 439.49 137.92 L 450.00 137.92 L 460.51 138.64 L 471.03 138.64 L 481.54 131.44 L 492.05 131.44 L 502.56 130.72 L 513.08 130.72 L 523.59 106.24 L 534.10 104.08 L 544.62 104.08 L 555.13 104.08 L 565.64 104.08 L 576.15 103.72 L 586.67 103.72 L 597.18 103.72 L 607.69 103.72 L 618.21 96.52 L 628.72 96.52 L 639.23 93.64 L 649.74 93.64 L 660.26 97.24 L 670.77 97.24 L 681.28 95.80 L 691.79 95.80 L 702.31 95.80 L 712.82 95.80 L 723.33 91.12 L 733.85 91.12 L 744.36 91.12 L 754.87 91.12 L 765.38 91.48 L 775.90 91.48 L 786.41 75.64 L 796.92 75.64 L 807.44 75.28 L 817.95 75.28 L 828.46 75.28 L 838.97 72.40 L 849.49 72.40 L 860.00 72.40" fill="none" stroke="#3fb950" stroke-width="2"/>
    <circle cx="860.00" cy="72.40" r="3" fill="#3fb950"/>
    <text x="40.00" y="235.00" font-size="9" fill="#c9d1d9" text-anchor="middle" transform="rotate(-45 40.00 235.00)">10.08.2025</text><text x="113.59" y="235.00" font-size="9" fill="#c9d1d9" text-anchor="middle" transform="rotate(-45 113.59 235.00)">09.08.2025</text><text x="187.18" y="235.00" font-size="9" fill="#c9d1d9" text-anchor="middle" transform="rotate(-45 187.18 235.00)">10.08.2025</text><text x="260.77" y="235.00" font-size="9" fill="#c9d1d9" text-anchor="middle" transform="rotate(-45 260.77 235.00)">10.08.2025</text><text x="334.36" y="235.00" font-size="9" fill="#c9d1d9" text-anchor="middle" transform="rotate(-45 334.36 235.00)">10.08.2025</text><text x="407.95" y="235.00" font-size="9" fill="#c9d1d9" text-anchor="middle" transform="rotate(-45 407.95 235.00)">10.08.2025</text><text x="481.54" y="235.00" font-size="9" fill="#c9d1d9" text-anchor="middle" transform="rotate(-45 481.54 235.00)">10.08.2025</text><text x="555.13" y="235.00" font-size="9" fill="#c9d1d9" text-anchor="middle" transform="rotate(-45 555.13 235.00)">10.08.2025</text><text x="628.72" y="235.00" font-size="9" fill="#c9d1d9" text-anchor="middle" transform="rotate(-45 628.72 235.00)">10.08.2025</text><text x="702.31" y="235.00" font-size="9" fill="#c9d1d9" text-anchor="middle" transform="rotate(-45 702.31 235.00)">10.08.2025</text><text x="775.90" y="235.00" font-size="9" fill="#c9d1d9" text-anchor="middle" transform="rotate(-45 775.90 235.00)">10.08.2025</text><text x="849.49" y="235.00" font-size="9" fill="#c9d1d9" text-anchor="middle" transform="rotate(-45 849.49 235.00)">26.08.2025</text>
  </g>
</svg>