<svg xmlns="http://www.w3.org/2000/svg" width="900" height="290" style="font-family: -apple-system, BlinkMacSystemFont, 'Segoe UI', Helvetica, Arial, sans-serif;">
  <rect width="100%" height="100%" fill="white"/>
  <g>
    <line x1="40" y1="220.00" x2="860" y2="220.00" stroke="#e5e7eb"/><text x="32" y="224.00" font-size="10" fill="#111827" text-anchor="end">0</text><line x1="40" y1="175.00" x2="860" y2="175.00" stroke="#e5e7eb"/><text x="32" y="179.00" font-size="10" fill="#111827" text-anchor="end">125</text><line x1="40" y1="130.00" x2="860" y2="130.00" stroke="#e5e7eb"/><text x="32" y="134.00" font-size="10" fill="#111827" text-anchor="end">250</text><line x1="40" y1="85.00" x2="860" y2="85.00" stroke="#e5e7eb"/><text x="32" y="89.00" font-size="10" fill="#111827" text-anchor="end">375</text><line x1="40" y1="40.00" x2="860" y2="40.00" stroke="#e5e7eb"/><text x="32" y="44.00" font-size="10" fill="#111827" text-anchor="end">500</text>
    <line x1="40.00" y1="40" x2="40.00" y2="220" stroke="#e5e7eb" opacity="0.5"/><line x1="120.99" y1="40" x2="120.99" y2="220" stroke="#e5e7eb" opacity="0.5"/><line x1="201.98" y1="40" x2="201.98" y2="220" stroke="#e5e7eb" opacity="0.5"/><line x1="282.96" y1="40" x2="282.96" y2="220" stroke="#e5e7eb" opacity="0.5"/><line x1="363.95" y1="40" x2="363.95" y2="220" stroke="#e5e7eb" opacity="0.5"/><line x1="444.94" y1="40" x2="444.94" y2="220" stroke="#e5e7eb" opacity="0.5"/><line x1="525.93" y1="40" x2="525.93" y2="220" stroke="#e5e7eb" opacity="0.5"/><line x1="606.91" y1="40" x2="606.91" y2="220" stroke="#e5e7eb" opacity="0.5"/><line x1="687.90" y1="40" x2="687.90" y2="220" stroke="#e5e7eb" opacity="0.5"/><line x1="768.89" y1="40" x2="768.89" y2="220" stroke="#e5e7eb" opacity="0.5"/><line x1="849.88" y1="40" x2="849.88" y2="220" stroke="#e5e7eb" opacity="0.5"/>
    <line x1="40" y1="220" x2="860" y2="220" stroke="#9ca3af"/>
    <line x1="40" y1="40"   x2="40"   y2="220" stroke="#9ca3af"/>
    <path d="M 40.00 219.28 L 50.12 204.52 L 60.25 178.96 L 70.37 167.80 L 80.49 160.60 L 90.62 146.56 L 100.74 147.28 L 110.86 167.44 L 120.99 167.44 L 131.11 167.44 L 141.23 167.44 L 151.36 167.44 L 161.48 159.88 L 171.60 159.88 L 181.73 159.88 L 191.85 159.88 L 201.98 156.64 L 212.10 156.64 L 222.22 151.96 L 232.35 151.96 L 242.47 151.96 L 252.59 150.16 L 262.72 150.16 L 272.84 150.16 L 282.96 150.16 L 293.09 150.16 L 303.21 150.16 L 313.33 150.16 L 323.46 150.16 L 333.58 150.16 L 343.70 147.64 L 353.83 147.64 L 363.95 147.64 L 374.07 147.64 L 384.20 147.64 L 394.32 147.64 L 404.44 143.32 L 414.57 143.32 L 424.69 137.92 L 434.81 137.92 L 444.94 138.64 L 455.06 138.64 L 465.19 131.44 L 475.31 131.44 L 485.43 130.72 L 495.56 130.72 L 505.68 106.24 L 515.80 104.08 L 525.93 104.08 L 536.05 104.08 L 546.17 104.08 L 556.30 103.72 L 566.42 103.72 L 576.54 103.72 L 586.67 103.72 L 596.79 96.52 L 606.91 96.52 L 617.04 93.64 L 627.16 93.64 L 637.28 97.24 L 647.41 97.24 L 657.53 95.80 L 667.65 95.80 L 677.78 95.80 L 687.90 95.80 L 698.02 91.12 L 708.15 91.12 L 718.27 91.12 L 728.40 91.12 L 738.52 91.48 L 748.64 91.48 L 758.77 75.64 L 768.89 75.64 L 779.01 75.28 L 789.14 75.28 L 799.26 75.28 L 809.38 72.40 L 819.51 72.40 L 829.63 72.40 L 839.75 72.40 L 849.88 65.56 L 860.00 64.12" fill="none" stroke="#111827" stroke-width="2"/>
    <circle cx="860.00" cy="64.12" r="3" fill="#111827"/>
    <text x="40.00" y="235.00" font-size="9" fill="#111827" text-anchor="middle" transform="rotate(-45 40.00 235.00)">10.08.2025</text><text x="120.99" y="235.00" font-size="9" fill="#111827" text-anchor="middle" transform="rotate(-45 120.99 235.00)">10.08.2025</text><text x="201.98" y="235.00" font-size="9" fill="#111827" text-anchor="middle" transform="rotate(-45 201.98 235.00)">10.08.2025</text><text x="282.96" y="235.00" font-size="9" fill="#111827" text-anchor="middle" transform="rotate(-45 282.96 235.00)">10.08.2025</text><text x="363.95" y="235.00" font-size="9" fill="#111827" text-anchor="middle" transform="rotate(-45 363.95 235.00)">10.08.2025</text><text x="444.94" y="235.00" font-size="9" fill="#111827" text-anchor="middle" transform="rotate(-45 444.94 235.00)">10.08.2025</text><text x="525.93" y="235.00" font-size="9" fill="#111827" text-anchor="middle" transform="rotate(-45 525.93 235.00)">10.08.2025</text><text x="606.91" y="235.00" font-size="9" fill="#111827" text-anchor="middle" transform="rotate(-45 606.91 235.00)">10.08.2025</text><text x="687.90" y="235.00" font-size="9" fill="#111827" text-anchor="middle" transform="rotate(-45 687.90 235.00)">10.08.2025</text><text x="768.89" y="235.00" font-size="9" fill="#111827" text-anchor="middle" transform="rotate(-45 768.89 235.00)">10.08.2025</text><text x="849.88" y="235.00" font-size="9" fill="#111827" text-anchor="middle" transform="rotate(-45 849.88 235.00)">01.03.2026</text>
  </g>
</svg>