<svg xmlns="http://www.w3.org/2000/svg" width="900" height="290" style="font-family: -apple-system, BlinkMacSystemFont, 'Segoe UI', Helvetica, Arial, sans-serif;">
  <rect width="100%" height="100%" fill="#0d1117"/>
  <g>
    <line x1="40" y1="220.00" x2="860" y2="220.00" stroke="#30363d"/><text x="32" y="224.00" font-size="10" fill="#c9d1d9" text-anchor="end">0</text><line x1="40" y1="184.00" x2="860" y2="184.00" stroke="#30363d"/><text x="32" y="188.00" font-size="10" fill="#c9d1d9" text-anchor="end">100</text><line x1="40" y1="148.00" x2="860" y2="148.00" stroke="#30363d"/><text x="32" y="152.00" font-size="10" fill="#c9d1d9" text-anchor="end">200</text><line x1="40" y1="112.00" x2="860" y2="112.00" stroke="#30363d"/><text x="32" y="116.00" font-size="10" fill="#c9d1d9" text-anchor="end">300</text><line x1="40" y1="76.00" x2="860" y2="76.00" stroke="#30363d"/><text x="32" y="80.00" font-size="10" fill="#c9d1d9" text-anchor="end">400</text><line x1="40" y1="40.00" x2="860" y2="40.00" stroke="#30363d"/><text x="32" y="44.00" font-size="10" fill="#c9d1d9" text-anchor="end">500</text>
    <line x1="40.00" y1="40" x2="40.00" y2="220" stroke="#30363d" opacity="0.5"/><line x1="109.79" y1="40" x2="109.79" y2="220" stroke="#30363d" opacity="0.5"/><line x1="179.57" y1="40" x2="179.57" y2="220" stroke="#30363d" opacity="0.5"/><line x1="249.36" y1="40" x2="249.36" y2="220" stroke="#30363d" opacity="0.5"/><line x1="319.15" y1="40" x2="319.15" y2="220" stroke="#30363d" opacity="0.5"/><line x1="388.94" y1="40" x2="388.94" y2="220" stroke="#30363d" opacity="0.5"/><line x1="458.72" y1="40" x2="458.72" y2="220" stroke="#30363d" opacity="0.5"/><line x1="528.51" y1="40" x2="528.51" y2="220" stroke="#30363d" opacity="0.5"/><line x1="598.30" y1="40" x2="598.30" y2="220" stroke="#30363d" opacity="0.5"/><line x1="668.09" y1="40" x2="668.09" y2="220" stroke="#30363d" opacity="0.5"/><line x1="737.87" y1="40" x2="737.87" y2="220" stroke="#30363d" opacity="0.5"/><line x1="807.66" y1="40" x2="807.66" y2="220" stroke="#30363d" opacity="0.5"/>
    <line x1="40" y1="220" x2="860" y2="220" stroke="#30363d"/>
    <line x1="40" y1="40"   x2="40"   y2="220" stroke="#30363d"/>
    <path d="M 40.00 219.28 L 57.45 204.52 L 74.89 178.96 L 92.34 167.80 L 109.79 160.60 L 127.23 146.56 L 144.68 147.28 L 162.13 167.44 L 179.57 167.44 L 197.02 167.44 L 214.47 167.44 L 231.91 167.44 L 249.36 159.88 L 266.81 159.88 L 284.26 159.88 L 301.70 159.88 L 319.15 156.64 L 336.60 156.64 L 354.04 151.96 L 371.49 151.96 L 388.94 151.96 L 406.38 150.16 L 423.83 150.16 L 441.28 150.16 L 458.72 150.16 L 476.17 150.16 L 493.62 150.16 L 511.06 150.16 L 528.51 150.16 L 545.96 150.16 L 563.40 147.64 L 580.85 147.64 L 598.30 147.64 L 615.74 147.64 L 633.19 147.64 L 650.64 147.64 L 668.09 143.32 L 685.53 143.32 L 702.98 137.92 L 720.43 137.92 L 737.87 138.64 L 755.32 138.64 L 772.77 131.44 L 790.21 131.44 L 807.66 130.72 L 825.11 130.72 L 842.55 106.24 L 860.00 104.08" fill="none" stroke="#3fb950" stroke-width="2"/>
    <circle cx="860.00" cy="104.08" r="3" fill="#3fb950"/>
    <text x="40.00" y="235.00" font-size="9" fill="#c9d1d9" text-anchor="middle" transform="rotate(-45 40.00 235.00)">02:36</text><text x="109.79" y="235.00" font-size="9" fill="#c9d1d9" text-anchor="middle" transform="rotate(-45 109.79 235.00)">01:10</text><text x="179.57" y="235.00" font-size="9" fill="#c9d1d9" text-anchor="middle" transform="rotate(-45 179.57 235.00)">01:17</text><text x="249.36" y="235.00" font-size="9" fill="#c9d1d9" text-anchor="middle" transform="rotate(-45 249.36 235.00)">01:26</text><text x="319.15" y="235.00" font-size="9" fill="#c9d1d9" text-anchor="middle" transform="rotate(-45 319.15 235.00)">01:44</text><text x="388.94" y="235.00" font-size="9" fill="#c9d1d9" text-anchor="middle" transform="rotate(-45 388.94 235.00)">23:51</text><text x="458.72" y="235.00" font-size="9" fill="#c9d1d9" text-anchor="middle" transform="rotate(-45 458.72 235.00)">01:55</text><text x="528.51" y="235.00" font-size="9" fill="#c9d1d9" text-anchor="middle" transform="rotate(-45 528.51 235.00)">02:06</text><text x="598.30" y="235.00" font-size="9" fill="#c9d1d9" text-anchor="middle" transform="rotate(-45 598.30 235.00)">02:10</text><text x="668.09" y="235.00" font-size="9" fill="#c9d1d9" text-anchor="middle" transform="rotate(-45 668.09 235.00)">02:29</text><text x="737.87" y="235.00" font-size="9" fill="#c9d1d9" text-anchor="middle" transform="rotate(-45 737.87 235.00)">02:35</text><text x="807.66" y="235.00" font-size="9" fill="#c9d1d9" text-anchor="middle" transform="rotate(-45 807.66 235.00)">02:39</text>
  </g>
</svg>