<svg xmlns="http://www.w3.org/2000/svg" width="900" height="290" style="font-family: -apple-system, BlinkMacSystemFont, 'Segoe UI', Helvetica, Arial, sans-serif;">
  <rect width="100%" height="100%" fill="#0d1117"/>
  <g>
    <line x1="40" y1="220.00" x2="860" y2="220.00" stroke="#30363d"/><text x="32" y="224.00" font-size="10" fill="#c9d1d9" text-anchor="end">0</text><line x1="40" y1="184.00" x2="860" y2="184.00" stroke="#30363d"/><text x="32" y="188.00" font-size="10" fill="#c9d1d9" text-anchor="end">100</text><line x1="40" y1="148.00" x2="860" y2="148.00" stroke="#30363d"/><text x="32" y="152.00" font-size="10" fill="#c9d1d9" text-anchor="end">200</text><line x1="40" y1="112.00" x2="860" y2="112.00" stroke="#30363d"/><text x="32" y="116.00" font-size="10" fill="#c9d1d9" text-anchor="end">300</text><line x1="40" y1="76.00" x2="860" y2="76.00" stroke="#30363d"/><text x="32" y="80.00" font-size="10" fill="#c9d1d9" text-anchor="end">400</text><line x1="40" y1="40.00" x2="860" y2="40.00" stroke="#30363d"/><text x="32" y="44.00" font-size="10" fill="#c9d1d9" text-anchor="end">500</text>
    <line x1="40.00" y1="40" x2="40.00" y2="220" stroke="#30363d" opacity="0.5"/><line x1="117.36" y1="40" x2="117.36" y2="220" stroke="#30363d" opacity="0.5"/><line x1="194.72" y1="40" x2="194.72" y2="220" stroke="#30363d" opacity="0.5"/><line x1="272.08" y1="40" x2="272.08" y2="220" stroke="#30363d" opacity="0.5"/><line x1="349.43" y1="40" x2="349.43" y2="220" stroke="#30363d" opacity="0.5"/><line x1="426.79" y1="40" x2="426.79" y2="220" stroke="#30363d" opacity="0.5"/><line x1="504.15" y1="40" x2="504.15" y2="220" stroke="#30363d" opacity="0.5"/><line x1="581.51" y1="40" x2="581.51" y2="220" stroke="#30363d" opacity="0.5"/><line x1="658.87" y1="40" x2="658.87" y2="220" stroke="#30363d" opacity="0.5"/><line x1="736.23" y1="40" x2="736.23" y2="220" stroke="#30363d" opacity="0.5"/><line x1="813.58" y1="40" x2="813.58" y2="220" stroke="#30363d" opacity="0.5"/>
    <line x1="40" y1="220" x2="860" y2="220" stroke="#30363d"/>
    <line x1="40" y1="40"   x2="40"   y2="220" stroke="#30363d"/>
    <path d="M 40.00 219.28 L 55.47 204.52 L 70.94 178.96 L 86.42 167.80 L 101.89 160.60 L 117.36 146.56 L 132.83 147.28 L 148.30 167.44 L 163.77 167.44 L 179.25 167.44 L 194.72 167.44 L 210.19 167.44 L 225.66 159.88 L 241.13 159.88 L 256.60 159.88 L 272.08 159.88 L 287.55 156.64 L 303.02 156.64 L 318.49 151.96 L 333.96 151.96 L 349.43 151.96 L 364.91 150.16 L 380.38 150.16 L 395.85 150.16 L 411.32 150.16 L 426.79 150.16 L 442.26 150.16 L 457.74 150.16 L 473.21 150.16 L 488.68 150.16 L 504.15 147.64 L 519.62 147.64 L 535.09 147.64 L 550.57 147.64 L 566.04 147.64 L 581.51 147.64 L 596.98 143.32 L 612.45 143.32 L 627.92 137.92 L 643.40 137.92 L 658.87 138.64 L 674.34 138.64 L 689.81 131.44 L 705.28 131.44 L 720.75 130.72 L 736.23 130.72 L 751.70 106.24 L 767.17 104.08 L 782.64 104.08 L 798.11 104.08 L 813.58 104.08 L 829.06 103.72 L 844.53 103.72 L 860.00 103.72" fill="none" stroke="#3fb950" stroke-width="2"/>
    <circle cx="860.00" cy="103.72" r="3" fill="#3fb950"/>
    <text x="40.00" y="235.00" font-size="9" fill="#c9d1d9" text-anchor="middle" transform="rotate(-45 40.00 235.00)">02:36</text><text x="117.36" y="235.00" font-size="9" fill="#c9d1d9" text-anchor="middle" transform="rotate(-45 117.36 235.00)">23:11</text><text x="194.72" y="235.00" font-size="9" fill="#c9d1d9" text-anchor="middle" transform="rotate(-45 194.72 235.00)">01:21</text><text x="272.08" y="235.00" font-size="9" fill="#c9d1d9" text-anchor="middle" transform="rotate(-45 272.08 235.00)">23:29</text><text x="349.43" y="235.00" font-size="9" fill="#c9d1d9" text-anchor="middle" transform="rotate(-45 349.43 235.00)">23:51</text><text x="426.79" y="235.00" font-size="9" fill="#c9d1d9" text-anchor="middle" transform="rotate(-45 426.79 235.00)">23:56</text><text x="504.15" y="235.00" font-size="9" fill="#c9d1d9" text-anchor="middle" transform="rotate(-45 504.15 235.00)">02:08</text><text x="581.51" y="235.00" font-size="9" fill="#c9d1d9" text-anchor="middle" transform="rotate(-45 581.51 235.00)">00:25</text><text x="658.87" y="235.00" font-size="9" fill="#c9d1d9" text-anchor="middle" transform="rotate(-45 658.87 235.00)">02:35</text><text x="736.23" y="235.00" font-size="9" fill="#c9d1d9" text-anchor="middle" transform="rotate(-45 736.23 235.00)">00:40</text><text x="813.58" y="235.00" font-size="9" fill="#c9d1d9" text-anchor="middle" transform="rotate(-45 813.58 235.00)">01:03</text>
  </g>
</svg>