<svg xmlns="http://www.w3.org/2000/svg" width="900" height="290" style="font-family: -apple-system, BlinkMacSystemFont, 'Segoe UI', Helvetica, Arial, sans-serif;">
  <rect width="100%" height="100%" fill="#0d1117"/>
  <g>
    <line x1="40.00" y1="40" x2="40.00" y2="220" stroke="#30363d" opacity="0.5"/><line x1="71.54" y1="40" x2="71.54" y2="220" stroke="#30363d" opacity="0.5"/><line x1="103.08" y1="40" x2="103.08" y2="220" stroke="#30363d" opacity="0.5"/><line x1="134.62" y1="40" x2="134.62" y2="220" stroke="#30363d" opacity="0.5"/><line x1="166.15" y1="40" x2="166.15" y2="220" stroke="#30363d" opacity="0.5"/><line x1="197.69" y1="40" x2="197.69" y2="220" stroke="#30363d" opacity="0.5"/><line x1="229.23" y1="40" x2="229.23" y2="220" stroke="#30363d" opacity="0.5"/><line x1="260.77" y1="40" x2="260.77" y2="220" stroke="#30363d" opacity="0.5"/><line x1="292.31" y1="40" x2="292.31" y2="220" stroke="#30363d" opacity="0.5"/><line x1="323.85" y1="40" x2="323.85" y2="220" stroke="#30363d" opacity="0.5"/><line x1="355.38" y1="40" x2="355.38" y2="220" stroke="#30363d" opacity="0.5"/><line x1="386.92" y1="40" x2="386.92" y2="220" stroke="#30363d" opacity="0.5"/><line x1="418.46" y1="40" x2="418.46" y2="220" stroke="#30363d" opacity="0.5"/><line x1="450.00" y1="40" x2="450.00" y2="220" stroke="#30363d" opacity="0.5"/><line x1="481.54" y1="40" x2="481.54" y2="220" stroke="#30363d" opacity="0.5"/><line x1="513.08" y1="40" x2="513.08" y2="220" stroke="#30363d" opacity="0.5"/><line x1="544.62" y1="40" x2="544.62" y2="220" stroke="#30363d" opacity="0.5"/><line x1="576.15" y1="40" x2="576.15" y2="220" stroke="#30363d" opacity="0.5"/><line x1="607.69" y1="40" x2="607.69" y2="220" stroke="#30363d" opacity="0.5"/><line x1="639.23" y1="40" x2="639.23" y2="220" stroke="#30363d" opacity="0.5"/><line x1="670.77" y1="40" x2="670.77" y2="220" stroke="#30363d" opacity="0.5"/><line x1="702.31" y1="40" x2="702.31" y2="220" stroke="#30363d" opacity="0.5"/><line x1="733.85" y1="40" x2="733.85" y2="220" stroke="#30363d" opacity="0.5"/><line x1="765.38" y1="40" x2="765.38" y2="220" stroke="#30363d" opacity="0.5"/><line x1="796.92" y1="40" x2="796.92" y2="220" stroke="#30363d" opacity="0.5"/><line x1="828.46" y1="40" x2="828.46" y2="220" stroke="#30363d" opacity="0.5"/><line x1="860.00" y1="40" x2="860.00" y2="220" stroke="#30363d" opacity="0.5"/>
    <line x1="40" y1="220.00" x2="860" y2="220.00" stroke="#30363d"/><text x="32" y="224.00" font-size="10" fill="#c9d1d9" text-anchor="end">0</text><line x1="40" y1="184.00" x2="860" y2="184.00" stroke="#30363d"/><text x="32" y="188.00" font-size="10" fill="#c9d1d9" text-anchor="end">50</text><line x1="40" y1="148.00" x2="860" y2="148.00" stroke="#30363d"/><text x="32" y="152.00" font-size="10" fill="#c9d1d9" text-anchor="end">100</text><line x1="40" y1="112.00" x2="860" y2="112.00" stroke="#30363d"/><text x="32" y="116.00" font-size="10" fill="#c9d1d9" text-anchor="end">150</text><line x1="40" y1="76.00" x2="860" y2="76.00" stroke="#30363d"/><text x="32" y="80.00" font-size="10" fill="#c9d1d9" text-anchor="end">200</text><line x1="40" y1="40.00" x2="860" y2="40.00" stroke="#30363d"/><text x="32" y="44.00" font-size="10" fill="#c9d1d9" text-anchor="end">250</text>
    <line x1="40" y1="220" x2="860" y2="220" stroke="#30363d"/>
    <line x1="40" y1="40"   x2="40"   y2="220" stroke="#30363d"/>
    <path d="M 40.00 218.56 L 71.54 189.04 L 103.08 137.92 L 134.62 115.60 L 166.15 101.20 L 197.69 73.12 L 229.23 74.56 L 260.77 114.88 L 292.31 114.88 L 323.85 114.88 L 355.38 114.88 L 386.92 114.88 L 418.46 99.76 L 450.00 99.76 L 481.54 99.76 L 513.08 99.76 L 544.62 93.28 L 576.15 93.28 L 607.69 83.92 L 639.23 83.92 L 670.77 83.92 L 702.31 80.32 L 733.85 80.32 L 765.38 80.32 L 796.92 80.32 L 828.46 80.32 L 860.00 80.32" fill="none" stroke="#3fb950" stroke-width="2"/>
    <circle cx="860.00" cy="80.32" r="3" fill="#3fb950"/>
    <text x="40.00" y="235.00" font-size="9" fill="#c9d1d9" text-anchor="middle" transform="rotate(-45 40.00 235.00)">02:36</text><text x="103.08" y="235.00" font-size="9" fill="#c9d1d9" text-anchor="middle" transform="rotate(-45 103.08 235.00)">02:41</text><text x="166.15" y="235.00" font-size="9" fill="#c9d1d9" text-anchor="middle" transform="rotate(-45 166.15 235.00)">01:10</text><text x="229.23" y="235.00" font-size="9" fill="#c9d1d9" text-anchor="middle" transform="rotate(-45 229.23 235.00)">01:14</text><text x="292.31" y="235.00" font-size="9" fill="#c9d1d9" text-anchor="middle" transform="rotate(-45 292.31 235.00)">01:17</text><text x="355.38" y="235.00" font-size="9" fill="#c9d1d9" text-anchor="middle" transform="rotate(-45 355.38 235.00)">01:21</text><text x="418.46" y="235.00" font-size="9" fill="#c9d1d9" text-anchor="middle" transform="rotate(-45 418.46 235.00)">01:26</text><text x="481.54" y="235.00" font-size="9" fill="#c9d1d9" text-anchor="middle" transform="rotate(-45 481.54 235.00)">01:29</text><text x="544.62" y="235.00" font-size="9" fill="#c9d1d9" text-anchor="middle" transform="rotate(-45 544.62 235.00)">01:44</text><text x="607.69" y="235.00" font-size="9" fill="#c9d1d9" text-anchor="middle" transform="rotate(-45 607.69 235.00)">01:49</text><text x="670.77" y="235.00" font-size="9" fill="#c9d1d9" text-anchor="middle" transform="rotate(-45 670.77 235.00)">23:51</text><text x="733.85" y="235.00" font-size="9" fill="#c9d1d9" text-anchor="middle" transform="rotate(-45 733.85 235.00)">23:54</text><text x="796.92" y="235.00" font-size="9" fill="#c9d1d9" text-anchor="middle" transform="rotate(-45 796.92 235.00)">01:55</text><text x="860.00" y="235.00" font-size="9" fill="#c9d1d9" text-anchor="middle" transform="rotate(-45 860.00 235.00)">04:04</text>
  </g>
</svg>