<svg xmlns="http://www.w3.org/2000/svg" width="900" height="290" style="font-family: -apple-system, BlinkMacSystemFont, 'Segoe UI', Helvetica, Arial, sans-serif;">
  <rect width="100%" height="100%" fill="#0d1117"/>
  <g>
    <line x1="40" y1="220.00" x2="860" y2="220.00" stroke="#30363d"/><text x="32" y="224.00" font-size="10" fill="#c9d1d9" text-anchor="end">0</text><line x1="40" y1="184.00" x2="860" y2="184.00" stroke="#30363d"/><text x="32" y="188.00" font-size="10" fill="#c9d1d9" text-anchor="end">100</text><line x1="40" y1="148.00" x2="860" y2="148.00" stroke="#30363d"/><text x="32" y="152.00" font-size="10" fill="#c9d1d9" text-anchor="end">200</text><line x1="40" y1="112.00" x2="860" y2="112.00" stroke="#30363d"/><text x="32" y="116.00" font-size="10" fill="#c9d1d9" text-anchor="end">300</text><line x1="40" y1="76.00" x2="860" y2="76.00" stroke="#30363d"/><text x="32" y="80.00" font-size="10" fill="#c9d1d9" text-anchor="end">400</text><line x1="40" y1="40.00" x2="860" y2="40.00" stroke="#30363d"/><text x="32" y="44.00" font-size="10" fill="#c9d1d9" text-anchor="end">500</text>
    <line x1="40.00" y1="40" x2="40.00" y2="220" stroke="#30363d" opacity="0.5"/><line x1="114.55" y1="40" x2="114.55" y2="220" stroke="#30363d" opacity="0.5"/><line x1="189.09" y1="40" x2="189.09" y2="220" stroke="#30363d" opacity="0.5"/><line x1="263.64" y1="40" x2="263.64" y2="220" stroke="#30363d" opacity="0.5"/><line x1="338.18" y1="40" x2="338.18" y2="220" stroke="#30363d" opacity="0.5"/><line x1="412.73" y1="40" x2="412.73" y2="220" stroke="#30363d" opacity="0.5"/><line x1="487.27" y1="40" x2="487.27" y2="220" stroke="#30363d" opacity="0.5"/><line x1="561.82" y1="40" x2="561.82" y2="220" stroke="#30363d" opacity="0.5"/><line x1="636.36" y1="40" x2="636.36" y2="220" stroke="#30363d" opacity="0.5"/><line x1="710.91" y1="40" x2="710.91" y2="220" stroke="#30363d" opacity="0.5"/><line x1="785.45" y1="40" x2="785.45" y2="220" stroke="#30363d" opacity="0.5"/><line x1="860.00" y1="40" x2="860.00" y2="220" stroke="#30363d" opacity="0.5"/>
    <line x1="40" y1="220" x2="860" y2="220" stroke="#30363d"/>
    <line x1="40" y1="40"   x2="40"   y2="220" stroke="#30363d"/>
    <path d="M 40.00 219.28 L 58.64 204.52 L 77.27 178.96 L 95.91 167.80 L 114.55 160.60 L 133.18 146.56 L 151.82 147.28 L 170.45 167.44 L 189.09 167.44 L 207.73 167.44 L 226.36 167.44 L 245.00 167.44 L 263.64 159.88 L 282.27 159.88 L 300.91 159.88 L 319.55 159.88 L 338.18 156.64 L 356.82 156.64 L 375.45 151.96 L 394.09 151.96 L 412.73 151.96 L 431.36 150.16 L 450.00 150.16 L 468.64 150.16 L 487.27 150.16 L 505.91 150.16 L 524.55 150.16 L 543.18 150.16 L 561.82 150.16 L 580.45 150.16 L 599.09 147.64 L 617.73 147.64 L 636.36 147.64 L 655.00 147.64 L 673.64 147.64 L 692.27 147.64 L 710.91 143.32 L 729.55 143.32 L 748.18 137.92 L 766.82 137.92 L 785.45 138.64 L 804.09 138.64 L 822.73 131.44 L 841.36 131.44 L 860.00 130.72" fill="none" stroke="#3fb950" stroke-width="2"/>
    <circle cx="860.00" cy="130.72" r="3" fill="#3fb950"/>
    <text x="40.00" y="235.00" font-size="9" fill="#c9d1d9" text-anchor="middle" transform="rotate(-45 40.00 235.00)">02:36</text><text x="114.55" y="235.00" font-size="9" fill="#c9d1d9" text-anchor="middle" transform="rotate(-45 114.55 235.00)">01:10</text><text x="189.09" y="235.00" font-size="9" fill="#c9d1d9" text-anchor="middle" transform="rotate(-45 189.09 235.00)">01:17</text><text x="263.64" y="235.00" font-size="9" fill="#c9d1d9" text-anchor="middle" transform="rotate(-45 263.64 235.00)">01:26</text><text x="338.18" y="235.00" font-size="9" fill="#c9d1d9" text-anchor="middle" transform="rotate(-45 338.18 235.00)">01:44</text><text x="412.73" y="235.00" font-size="9" fill="#c9d1d9" text-anchor="middle" transform="rotate(-45 412.73 235.00)">23:51</text><text x="487.27" y="235.00" font-size="9" fill="#c9d1d9" text-anchor="middle" transform="rotate(-45 487.27 235.00)">01:55</text><text x="561.82" y="235.00" font-size="9" fill="#c9d1d9" text-anchor="middle" transform="rotate(-45 561.82 235.00)">02:06</text><text x="636.36" y="235.00" font-size="9" fill="#c9d1d9" text-anchor="middle" transform="rotate(-45 636.36 235.00)">02:10</text><text x="710.91" y="235.00" font-size="9" fill="#c9d1d9" text-anchor="middle" transform="rotate(-45 710.91 235.00)">02:29</text><text x="785.45" y="235.00" font-size="9" fill="#c9d1d9" text-anchor="middle" transform="rotate(-45 785.45 235.00)">02:35</text><text x="860.00" y="235.00" font-size="9" fill="#c9d1d9" text-anchor="middle" transform="rotate(-45 860.00 235.00)">02:39</text>
  </g>
</svg>