<svg xmlns="http://www.w3.org/2000/svg" width="900" height="290">
  <rect width="100%" height="100%" fill="#0d1117"/>
  <g>
    <line x1="40.00" y1="40" x2="40.00" y2="220" stroke="#30363d" opacity="0.5"/><line x1="83.16" y1="40" x2="83.16" y2="220" stroke="#30363d" opacity="0.5"/><line x1="126.32" y1="40" x2="126.32" y2="220" stroke="#30363d" opacity="0.5"/><line x1="169.47" y1="40" x2="169.47" y2="220" stroke="#30363d" opacity="0.5"/><line x1="212.63" y1="40" x2="212.63" y2="220" stroke="#30363d" opacity="0.5"/><line x1="255.79" y1="40" x2="255.79" y2="220" stroke="#30363d" opacity="0.5"/><line x1="298.95" y1="40" x2="298.95" y2="220" stroke="#30363d" opacity="0.5"/><line x1="342.11" y1="40" x2="342.11" y2="220" stroke="#30363d" opacity="0.5"/><line x1="385.26" y1="40" x2="385.26" y2="220" stroke="#30363d" opacity="0.5"/><line x1="428.42" y1="40" x2="428.42" y2="220" stroke="#30363d" opacity="0.5"/><line x1="471.58" y1="40" x2="471.58" y2="220" stroke="#30363d" opacity="0.5"/><line x1="514.74" y1="40" x2="514.74" y2="220" stroke="#30363d" opacity="0.5"/><line x1="557.89" y1="40" x2="557.89" y2="220" stroke="#30363d" opacity="0.5"/><line x1="601.05" y1="40" x2="601.05" y2="220" stroke="#30363d" opacity="0.5"/><line x1="644.21" y1="40" x2="644.21" y2="220" stroke="#30363d" opacity="0.5"/><line x1="687.37" y1="40" x2="687.37" y2="220" stroke="#30363d" opacity="0.5"/><line x1="730.53" y1="40" x2="730.53" y2="220" stroke="#30363d" opacity="0.5"/><line x1="773.68" y1="40" x2="773.68" y2="220" stroke="#30363d" opacity="0.5"/><line x1="816.84" y1="40" x2="816.84" y2="220" stroke="#30363d" opacity="0.5"/><line x1="860.00" y1="40" x2="860.00" y2="220" stroke="#30363d" opacity="0.5"/>
    <line x1="40" y1="220.00" x2="860" y2="220.00" stroke="#30363d"/><text x="32" y="224.00" font-size="10" fill="#c9d1d9" text-anchor="end">0</text><line x1="40" y1="184.00" x2="860" y2="184.00" stroke="#30363d"/><text x="32" y="188.00" font-size="10" fill="#c9d1d9" text-anchor="end">50</text><line x1="40" y1="148.00" x2="860" y2="148.00" stroke="#30363d"/><text x="32" y="152.00" font-size="10" fill="#c9d1d9" text-anchor="end">100</text><line x1="40" y1="112.00" x2="860" y2="112.00" stroke="#30363d"/><text x="32" y="116.00" font-size="10" fill="#c9d1d9" text-anchor="end">150</text><line x1="40" y1="76.00" x2="860" y2="76.00" stroke="#30363d"/><text x="32" y="80.00" font-size="10" fill="#c9d1d9" text-anchor="end">200</text><line x1="40" y1="40.00" x2="860" y2="40.00" stroke="#30363d"/><text x="32" y="44.00" font-size="10" fill="#c9d1d9" text-anchor="end">250</text>
    <line x1="40" y1="220" x2="860" y2="220" stroke="#30363d"/>
    <line x1="40" y1="40"   x2="40"   y2="220" stroke="#30363d"/>
    <path d="M 40.00 218.56 L 83.16 189.04 L 126.32 137.92 L 169.47 115.60 L 212.63 101.20 L 255.79 73.12 L 298.95 74.56 L 342.11 114.88 L 385.26 114.88 L 428.42 114.88 L 471.58 114.88 L 514.74 114.88 L 557.89 99.76 L 601.05 99.76 L 644.21 99.76 L 687.37 99.76 L 730.53 93.28 L 773.68 93.28 L 816.84 83.92 L 860.00 83.92" fill="none" stroke="#3fb950" stroke-width="2"/>
    <circle cx="860.00" cy="83.92" r="3" fill="#3fb950"/>
    <text x="40.00" y="235.00" font-size="9" fill="#c9d1d9" text-anchor="middle" transform="rotate(-45 40.00 235.00)">02:36</text><text x="126.32" y="235.00" font-size="9" fill="#c9d1d9" text-anchor="middle" transform="rotate(-45 126.32 235.00)">02:41</text><text x="212.63" y="235.00" font-size="9" fill="#c9d1d9" text-anchor="middle" transform="rotate(-45 212.63 235.00)">01:10</text><text x="298.95" y="235.00" font-size="9" fill="#c9d1d9" text-anchor="middle" transform="rotate(-45 298.95 235.00)">01:14</text><text x="385.26" y="235.00" font-size="9" fill="#c9d1d9" text-anchor="middle" transform="rotate(-45 385.26 235.00)">01:17</text><text x="471.58" y="235.00" font-size="9" fill="#c9d1d9" text-anchor="middle" transform="rotate(-45 471.58 235.00)">01:21</text><text x="557.89" y="235.00" font-size="9" fill="#c9d1d9" text-anchor="middle" transform="rotate(-45 557.89 235.00)">01:26</text><text x="644.21" y="235.00" font-size="9" fill="#c9d1d9" text-anchor="middle" transform="rotate(-45 644.21 235.00)">01:29</text><text x="730.53" y="235.00" font-size="9" fill="#c9d1d9" text-anchor="middle" transform="rotate(-45 730.53 235.00)">01:44</text><text x="816.84" y="235.00" font-size="9" fill="#c9d1d9" text-anchor="middle" transform="rotate(-45 816.84 235.00)">01:49</text>
  </g>
</svg>