<svg xmlns="http://www.w3.org/2000/svg" width="900" height="290" style="font-family: -apple-system, BlinkMacSystemFont, 'Segoe UI', Helvetica, Arial, sans-serif;">
  <rect width="100%" height="100%" fill="#0d1117"/>
  <g>
    <line x1="40" y1="220.00" x2="860" y2="220.00" stroke="#30363d"/><text x="32" y="224.00" font-size="10" fill="#c9d1d9" text-anchor="end">0</text><line x1="40" y1="184.00" x2="860" y2="184.00" stroke="#30363d"/><text x="32" y="188.00" font-size="10" fill="#c9d1d9" text-anchor="end">100</text><line x1="40" y1="148.00" x2="860" y2="148.00" stroke="#30363d"/><text x="32" y="152.00" font-size="10" fill="#c9d1d9" text-anchor="end">200</text><line x1="40" y1="112.00" x2="860" y2="112.00" stroke="#30363d"/><text x="32" y="116.00" font-size="10" fill="#c9d1d9" text-anchor="end">300</text><line x1="40" y1="76.00" x2="860" y2="76.00" stroke="#30363d"/><text x="32" y="80.00" font-size="10" fill="#c9d1d9" text-anchor="end">400</text><line x1="40" y1="40.00" x2="860" y2="40.00" stroke="#30363d"/><text x="32" y="44.00" font-size="10" fill="#c9d1d9" text-anchor="end">500</text>
    <line x1="40.00" y1="40" x2="40.00" y2="220" stroke="#30363d" opacity="0.5"/><line x1="123.39" y1="40" x2="123.39" y2="220" stroke="#30363d" opacity="0.5"/><line x1="206.78" y1="40" x2="206.78" y2="220" stroke="#30363d" opacity="0.5"/><line x1="290.17" y1="40" x2="290.17" y2="220" stroke="#30363d" opacity="0.5"/><line x1="373.56" y1="40" x2="373.56" y2="220" stroke="#30363d" opacity="0.5"/><line x1="456.95" y1="40" x2="456.95" y2="220" stroke="#30363d" opacity="0.5"/><line x1="540.34" y1="40" x2="540.34" y2="220" stroke="#30363d" opacity="0.5"/><line x1="623.73" y1="40" x2="623.73" y2="220" stroke="#30363d" opacity="0.5"/><line x1="707.12" y1="40" x2="707.12" y2="220" stroke="#30363d" opacity="0.5"/><line x1="790.51" y1="40" x2="790.51" y2="220" stroke="#30363d" opacity="0.5"/>
    <line x1="40" y1="220" x2="860" y2="220" stroke="#30363d"/>
    <line x1="40" y1="40"   x2="40"   y2="220" stroke="#30363d"/>
    <path d="M 40.00 219.28 L 53.90 204.52 L 67.80 178.96 L 81.69 167.80 L 95.59 160.60 L 109.49 146.56 L 123.39 147.28 L 137.29 167.44 L 151.19 167.44 L 165.08 167.44 L 178.98 167.44 L 192.88 167.44 L 206.78 159.88 L 220.68 159.88 L 234.58 159.88 L 248.47 159.88 L 262.37 156.64 L 276.27 156.64 L 290.17 151.96 L 304.07 151.96 L 317.97 151.96 L 331.86 150.16 L 345.76 150.16 L 359.66 150.16 L 373.56 150.16 L 387.46 150.16 L 401.36 150.16 L 415.25 150.16 L 429.15 150.16 L 443.05 150.16 L 456.95 147.64 L 470.85 147.64 L 484.75 147.64 L 498.64 147.64 L 512.54 147.64 L 526.44 147.64 L 540.34 143.32 L 554.24 143.32 L 568.14 137.92 L 582.03 137.92 L 595.93 138.64 L 609.83 138.64 L 623.73 131.44 L 637.63 131.44 L 651.53 130.72 L 665.42 130.72 L 679.32 106.24 L 693.22 104.08 L 707.12 104.08 L 721.02 104.08 L 734.92 104.08 L 748.81 103.72 L 762.71 103.72 L 776.61 103.72 L 790.51 103.72 L 804.41 96.52 L 818.31 96.52 L 832.20 93.64 L 846.10 93.64 L 860.00 97.24" fill="none" stroke="#3fb950" stroke-width="2"/>
    <circle cx="860.00" cy="97.24" r="3" fill="#3fb950"/>
    <text x="40.00" y="235.00" font-size="9" fill="#c9d1d9" text-anchor="middle" transform="rotate(-45 40.00 235.00)">02:36</text><text x="123.39" y="235.00" font-size="9" fill="#c9d1d9" text-anchor="middle" transform="rotate(-45 123.39 235.00)">01:14</text><text x="206.78" y="235.00" font-size="9" fill="#c9d1d9" text-anchor="middle" transform="rotate(-45 206.78 235.00)">01:26</text><text x="290.17" y="235.00" font-size="9" fill="#c9d1d9" text-anchor="middle" transform="rotate(-45 290.17 235.00)">01:49</text><text x="373.56" y="235.00" font-size="9" fill="#c9d1d9" text-anchor="middle" transform="rotate(-45 373.56 235.00)">01:55</text><text x="456.95" y="235.00" font-size="9" fill="#c9d1d9" text-anchor="middle" transform="rotate(-45 456.95 235.00)">02:08</text><text x="540.34" y="235.00" font-size="9" fill="#c9d1d9" text-anchor="middle" transform="rotate(-45 540.34 235.00)">02:29</text><text x="623.73" y="235.00" font-size="9" fill="#c9d1d9" text-anchor="middle" transform="rotate(-45 623.73 235.00)">02:35</text><text x="707.12" y="235.00" font-size="9" fill="#c9d1d9" text-anchor="middle" transform="rotate(-45 707.12 235.00)">01:00</text><text x="790.51" y="235.00" font-size="9" fill="#c9d1d9" text-anchor="middle" transform="rotate(-45 790.51 235.00)">01:07</text>
  </g>
</svg>