<svg xmlns="http://www.w3.org/2000/svg" width="900" height="290" style="font-family: -apple-system, BlinkMacSystemFont, 'Segoe UI', Helvetica, Arial, sans-serif;">
  <rect width="100%" height="100%" fill="white"/>
  <g>
    <line x1="40" y1="220.00" x2="860" y2="220.00" stroke="#e5e7eb"/><text x="32" y="224.00" font-size="10" fill="#111827" text-anchor="end">0</text><line x1="40" y1="175.00" x2="860" y2="175.00" stroke="#e5e7eb"/><text x="32" y="179.00" font-size="10" fill="#111827" text-anchor="end">125</text><line x1="40" y1="130.00" x2="860" y2="130.00" stroke="#e5e7eb"/><text x="32" y="134.00" font-size="10" fill="#111827" text-anchor="end">250</text><line x1="40" y1="85.00" x2="860" y2="85.00" stroke="#e5e7eb"/><text x="32" y="89.00" font-size="10" fill="#111827" text-anchor="end">375</text><line x1="40" y1="40.00" x2="860" y2="40.00" stroke="#e5e7eb"/><text x="32" y="44.00" font-size="10" fill="#111827" text-anchor="end">500</text>
    <line x1="40.00" y1="40" x2="40.00" y2="220" stroke="#e5e7eb" opacity="0.5"/><line x1="117.57" y1="40" x2="117.57" y2="220" stroke="#e5e7eb" opacity="0.5"/><line x1="195.14" y1="40" x2="195.14" y2="220" stroke="#e5e7eb" opacity="0.5"/><line x1="272.70" y1="40" x2="272.70" y2="220" stroke="#e5e7eb" opacity="0.5"/><line x1="350.27" y1="40" x2="350.27" y2="220" stroke="#e5e7eb" opacity="0.5"/><line x1="427.84" y1="40" x2="427.84" y2="220" stroke="#e5e7eb" opacity="0.5"/><line x1="505.41" y1="40" x2="505.41" y2="220" stroke="#e5e7eb" opacity="0.5"/><line x1="582.97" y1="40" x2="582.97" y2="220" stroke="#e5e7eb" opacity="0.5"/><line x1="660.54" y1="40" x2="660.54" y2="220" stroke="#e5e7eb" opacity="0.5"/><line x1="738.11" y1="40" x2="738.11" y2="220" stroke="#e5e7eb" opacity="0.5"/><line x1="815.68" y1="40" x2="815.68" y2="220" stroke="#e5e7eb" opacity="0.5"/>
    <line x1="40" y1="220" x2="860" y2="220" stroke="#9ca3af"/>
    <line x1="40" y1="40"   x2="40"   y2="220" stroke="#9ca3af"/>
    <path d="M 40.00 219.28 L 51.08 204.52 L 62.16 178.96 L 73.24 167.80 L 84.32 160.60 L 95.41 146.56 L 106.49 147.28 L 117.57 167.44 L 128.65 167.44 L 139.73 167.44 L 150.81 167.44 L 161.89 167.44 L 172.97 159.88 L 184.05 159.88 L 195.14 159.88 L 206.22 159.88 L 217.30 156.64 L 228.38 156.64 L 239.46 151.96 L 250.54 151.96 L 261.62 151.96 L 272.70 150.16 L 283.78 150.16 L 294.86 150.16 L 305.95 150.16 L 317.03 150.16 L 328.11 150.16 L 339.19 150.16 L 350.27 150.16 L 361.35 150.16 L 372.43 147.64 L 383.51 147.64 L 394.59 147.64 L 405.68 147.64 L 416.76 147.64 L 427.84 147.64 L 438.92 143.32 L 450.00 143.32 L 461.08 137.92 L 472.16 137.92 L 483.24 138.64 L 494.32 138.64 L 505.41 131.44 L 516.49 131.44 L 527.57 130.72 L 538.65 130.72 L 549.73 106.24 L 560.81 104.08 L 571.89 104.08 L 582.97 104.08 L 594.05 104.08 L 605.14 103.72 L 616.22 103.72 L 627.30 103.72 L 638.38 103.72 L 649.46 96.52 L 660.54 96.52 L 671.62 93.64 L 682.70 93.64 L 693.78 97.24 L 704.86 97.24 L 715.95 95.80 L 727.03 95.80 L 738.11 95.80 L 749.19 95.80 L 760.27 91.12 L 771.35 91.12 L 782.43 91.12 L 793.51 91.12 L 804.59 91.48 L 815.68 91.48 L 826.76 75.64 L 837.84 75.64 L 848.92 75.28 L 860.00 75.28" fill="none" stroke="#111827" stroke-width="2"/>
    <circle cx="860.00" cy="75.28" r="3" fill="#111827"/>
    <text x="40.00" y="235.00" font-size="9" fill="#111827" text-anchor="middle" transform="rotate(-45 40.00 235.00)">10.08.2025</text><text x="117.57" y="235.00" font-size="9" fill="#111827" text-anchor="middle" transform="rotate(-45 117.57 235.00)">09.08.2025</text><text x="195.14" y="235.00" font-size="9" fill="#111827" text-anchor="middle" transform="rotate(-45 195.14 235.00)">10.08.2025</text><text x="272.70" y="235.00" font-size="9" fill="#111827" text-anchor="middle" transform="rotate(-45 272.70 235.00)">10.08.2025</text><text x="350.27" y="235.00" font-size="9" fill="#111827" text-anchor="middle" transform="rotate(-45 350.27 235.00)">10.08.2025</text><text x="427.84" y="235.00" font-size="9" fill="#111827" text-anchor="middle" transform="rotate(-45 427.84 235.00)">10.08.2025</text><text x="505.41" y="235.00" font-size="9" fill="#111827" text-anchor="middle" transform="rotate(-45 505.41 235.00)">10.08.2025</text><text x="582.97" y="235.00" font-size="9" fill="#111827" text-anchor="middle" transform="rotate(-45 582.97 235.00)">10.08.2025</text><text x="660.54" y="235.00" font-size="9" fill="#111827" text-anchor="middle" transform="rotate(-45 660.54 235.00)">10.08.2025</text><text x="738.11" y="235.00" font-size="9" fill="#111827" text-anchor="middle" transform="rotate(-45 738.11 235.00)">10.08.2025</text><text x="815.68" y="235.00" font-size="9" fill="#111827" text-anchor="middle" transform="rotate(-45 815.68 235.00)">10.08.2025</text>
  </g>
</svg>