<svg xmlns="http://www.w3.org/2000/svg" width="900" height="290">
  <rect width="100%" height="100%" fill="#0d1117"/>
  <g>
    <line x1="40.00" y1="40" x2="40.00" y2="220" stroke="#30363d" opacity="0.5"/><line x1="79.05" y1="40" x2="79.05" y2="220" stroke="#30363d" opacity="0.5"/><line x1="118.10" y1="40" x2="118.10" y2="220" stroke="#30363d" opacity="0.5"/><line x1="157.14" y1="40" x2="157.14" y2="220" stroke="#30363d" opacity="0.5"/><line x1="196.19" y1="40" x2="196.19" y2="220" stroke="#30363d" opacity="0.5"/><line x1="235.24" y1="40" x2="235.24" y2="220" stroke="#30363d" opacity="0.5"/><line x1="274.29" y1="40" x2="274.29" y2="220" stroke="#30363d" opacity="0.5"/><line x1="313.33" y1="40" x2="313.33" y2="220" stroke="#30363d" opacity="0.5"/><line x1="352.38" y1="40" x2="352.38" y2="220" stroke="#30363d" opacity="0.5"/><line x1="391.43" y1="40" x2="391.43" y2="220" stroke="#30363d" opacity="0.5"/><line x1="430.48" y1="40" x2="430.48" y2="220" stroke="#30363d" opacity="0.5"/><line x1="469.52" y1="40" x2="469.52" y2="220" stroke="#30363d" opacity="0.5"/><line x1="508.57" y1="40" x2="508.57" y2="220" stroke="#30363d" opacity="0.5"/><line x1="547.62" y1="40" x2="547.62" y2="220" stroke="#30363d" opacity="0.5"/><line x1="586.67" y1="40" x2="586.67" y2="220" stroke="#30363d" opacity="0.5"/><line x1="625.71" y1="40" x2="625.71" y2="220" stroke="#30363d" opacity="0.5"/><line x1="664.76" y1="40" x2="664.76" y2="220" stroke="#30363d" opacity="0.5"/><line x1="703.81" y1="40" x2="703.81" y2="220" stroke="#30363d" opacity="0.5"/><line x1="742.86" y1="40" x2="742.86" y2="220" stroke="#30363d" opacity="0.5"/><line x1="781.90" y1="40" x2="781.90" y2="220" stroke="#30363d" opacity="0.5"/><line x1="820.95" y1="40" x2="820.95" y2="220" stroke="#30363d" opacity="0.5"/><line x1="860.00" y1="40" x2="860.00" y2="220" stroke="#30363d" opacity="0.5"/>
    <line x1="40" y1="220.00" x2="860" y2="220.00" stroke="#30363d"/><text x="32" y="224.00" font-size="10" fill="#c9d1d9" text-anchor="end">0</text><line x1="40" y1="184.00" x2="860" y2="184.00" stroke="#30363d"/><text x="32" y="188.00" font-size="10" fill="#c9d1d9" text-anchor="end">50</text><line x1="40" y1="148.00" x2="860" y2="148.00" stroke="#30363d"/><text x="32" y="152.00" font-size="10" fill="#c9d1d9" text-anchor="end">100</text><line x1="40" y1="112.00" x2="860" y2="112.00" stroke="#30363d"/><text x="32" y="116.00" font-size="10" fill="#c9d1d9" text-anchor="end">150</text><line x1="40" y1="76.00" x2="860" y2="76.00" stroke="#30363d"/><text x="32" y="80.00" font-size="10" fill="#c9d1d9" text-anchor="end">200</text><line x1="40" y1="40.00" x2="860" y2="40.00" stroke="#30363d"/><text x="32" y="44.00" font-size="10" fill="#c9d1d9" text-anchor="end">250</text>
    <line x1="40" y1="220" x2="860" y2="220" stroke="#30363d"/>
    <line x1="40" y1="40"   x2="40"   y2="220" stroke="#30363d"/>
    <path d="M 40.00 218.56 L 79.05 189.04 L 118.10 137.92 L 157.14 115.60 L 196.19 101.20 L 235.24 73.12 L 274.29 74.56 L 313.33 114.88 L 352.38 114.88 L 391.43 114.88 L 430.48 114.88 L 469.52 114.88 L 508.57 99.76 L 547.62 99.76 L 586.67 99.76 L 625.71 99.76 L 664.76 93.28 L 703.81 93.28 L 742.86 83.92 L 781.90 83.92 L 820.95 83.92 L 860.00 80.32" fill="none" stroke="#3fb950" stroke-width="2"/>
    <circle cx="860.00" cy="80.32" r="3" fill="#3fb950"/>
    <text x="40.00" y="235.00" font-size="9" fill="#c9d1d9" text-anchor="middle" transform="rotate(-45 40.00 235.00)">02:36</text><text x="118.10" y="235.00" font-size="9" fill="#c9d1d9" text-anchor="middle" transform="rotate(-45 118.10 235.00)">02:41</text><text x="196.19" y="235.00" font-size="9" fill="#c9d1d9" text-anchor="middle" transform="rotate(-45 196.19 235.00)">01:10</text><text x="274.29" y="235.00" font-size="9" fill="#c9d1d9" text-anchor="middle" transform="rotate(-45 274.29 235.00)">01:14</text><text x="352.38" y="235.00" font-size="9" fill="#c9d1d9" text-anchor="middle" transform="rotate(-45 352.38 235.00)">01:17</text><text x="430.48" y="235.00" font-size="9" fill="#c9d1d9" text-anchor="middle" transform="rotate(-45 430.48 235.00)">01:21</text><text x="508.57" y="235.00" font-size="9" fill="#c9d1d9" text-anchor="middle" transform="rotate(-45 508.57 235.00)">01:26</text><text x="586.67" y="235.00" font-size="9" fill="#c9d1d9" text-anchor="middle" transform="rotate(-45 586.67 235.00)">01:29</text><text x="664.76" y="235.00" font-size="9" fill="#c9d1d9" text-anchor="middle" transform="rotate(-45 664.76 235.00)">01:44</text><text x="742.86" y="235.00" font-size="9" fill="#c9d1d9" text-anchor="middle" transform="rotate(-45 742.86 235.00)">01:49</text><text x="820.95" y="235.00" font-size="9" fill="#c9d1d9" text-anchor="middle" transform="rotate(-45 820.95 235.00)">23:51</text>
  </g>
</svg>