<svg xmlns="http://www.w3.org/2000/svg" width="900" height="290" style="font-family: -apple-system, BlinkMacSystemFont, 'Segoe UI', Helvetica, Arial, sans-serif;">
  <rect width="100%" height="100%" fill="#0d1117"/>
  <g>
    <line x1="40" y1="220.00" x2="860" y2="220.00" stroke="#30363d"/><text x="32" y="224.00" font-size="10" fill="#c9d1d9" text-anchor="end">0</text><line x1="40" y1="184.00" x2="860" y2="184.00" stroke="#30363d"/><text x="32" y="188.00" font-size="10" fill="#c9d1d9" text-anchor="end">100</text><line x1="40" y1="148.00" x2="860" y2="148.00" stroke="#30363d"/><text x="32" y="152.00" font-size="10" fill="#c9d1d9" text-anchor="end">200</text><line x1="40" y1="112.00" x2="860" y2="112.00" stroke="#30363d"/><text x="32" y="116.00" font-size="10" fill="#c9d1d9" text-anchor="end">300</text><line x1="40" y1="76.00" x2="860" y2="76.00" stroke="#30363d"/><text x="32" y="80.00" font-size="10" fill="#c9d1d9" text-anchor="end">400</text><line x1="40" y1="40.00" x2="860" y2="40.00" stroke="#30363d"/><text x="32" y="44.00" font-size="10" fill="#c9d1d9" text-anchor="end">500</text>
    <line x1="40.00" y1="40" x2="40.00" y2="220" stroke="#30363d" opacity="0.5"/><line x1="120.66" y1="40" x2="120.66" y2="220" stroke="#30363d" opacity="0.5"/><line x1="201.31" y1="40" x2="201.31" y2="220" stroke="#30363d" opacity="0.5"/><line x1="281.97" y1="40" x2="281.97" y2="220" stroke="#30363d" opacity="0.5"/><line x1="362.62" y1="40" x2="362.62" y2="220" stroke="#30363d" opacity="0.5"/><line x1="443.28" y1="40" x2="443.28" y2="220" stroke="#30363d" opacity="0.5"/><line x1="523.93" y1="40" x2="523.93" y2="220" stroke="#30363d" opacity="0.5"/><line x1="604.59" y1="40" x2="604.59" y2="220" stroke="#30363d" opacity="0.5"/><line x1="685.25" y1="40" x2="685.25" y2="220" stroke="#30363d" opacity="0.5"/><line x1="765.90" y1="40" x2="765.90" y2="220" stroke="#30363d" opacity="0.5"/><line x1="846.56" y1="40" x2="846.56" y2="220" stroke="#30363d" opacity="0.5"/>
    <line x1="40" y1="220" x2="860" y2="220" stroke="#30363d"/>
    <line x1="40" y1="40"   x2="40"   y2="220" stroke="#30363d"/>
    <path d="M 40.00 219.28 L 53.44 204.52 L 66.89 178.96 L 80.33 167.80 L 93.77 160.60 L 107.21 146.56 L 120.66 147.28 L 134.10 167.44 L 147.54 167.44 L 160.98 167.44 L 174.43 167.44 L 187.87 167.44 L 201.31 159.88 L 214.75 159.88 L 228.20 159.88 L 241.64 159.88 L 255.08 156.64 L 268.52 156.64 L 281.97 151.96 L 295.41 151.96 L 308.85 151.96 L 322.30 150.16 L 335.74 150.16 L 349.18 150.16 L 362.62 150.16 L 376.07 150.16 L 389.51 150.16 L 402.95 150.16 L 416.39 150.16 L 429.84 150.16 L 443.28 147.64 L 456.72 147.64 L 470.16 147.64 L 483.61 147.64 L 497.05 147.64 L 510.49 147.64 L 523.93 143.32 L 537.38 143.32 L 550.82 137.92 L 564.26 137.92 L 577.70 138.64 L 591.15 138.64 L 604.59 131.44 L 618.03 131.44 L 631.48 130.72 L 644.92 130.72 L 658.36 106.24 L 671.80 104.08 L 685.25 104.08 L 698.69 104.08 L 712.13 104.08 L 725.57 103.72 L 739.02 103.72 L 752.46 103.72 L 765.90 103.72 L 779.34 96.52 L 792.79 96.52 L 806.23 93.64 L 819.67 93.64 L 833.11 97.24 L 846.56 97.24 L 860.00 95.80" fill="none" stroke="#3fb950" stroke-width="2"/>
    <circle cx="860.00" cy="95.80" r="3" fill="#3fb950"/>
    <text x="40.00" y="235.00" font-size="9" fill="#c9d1d9" text-anchor="middle" transform="rotate(-45 40.00 235.00)">02:36</text><text x="120.66" y="235.00" font-size="9" fill="#c9d1d9" text-anchor="middle" transform="rotate(-45 120.66 235.00)">01:14</text><text x="201.31" y="235.00" font-size="9" fill="#c9d1d9" text-anchor="middle" transform="rotate(-45 201.31 235.00)">01:26</text><text x="281.97" y="235.00" font-size="9" fill="#c9d1d9" text-anchor="middle" transform="rotate(-45 281.97 235.00)">01:49</text><text x="362.62" y="235.00" font-size="9" fill="#c9d1d9" text-anchor="middle" transform="rotate(-45 362.62 235.00)">01:55</text><text x="443.28" y="235.00" font-size="9" fill="#c9d1d9" text-anchor="middle" transform="rotate(-45 443.28 235.00)">02:08</text><text x="523.93" y="235.00" font-size="9" fill="#c9d1d9" text-anchor="middle" transform="rotate(-45 523.93 235.00)">02:29</text><text x="604.59" y="235.00" font-size="9" fill="#c9d1d9" text-anchor="middle" transform="rotate(-45 604.59 235.00)">02:35</text><text x="685.25" y="235.00" font-size="9" fill="#c9d1d9" text-anchor="middle" transform="rotate(-45 685.25 235.00)">01:00</text><text x="765.90" y="235.00" font-size="9" fill="#c9d1d9" text-anchor="middle" transform="rotate(-45 765.90 235.00)">01:07</text><text x="846.56" y="235.00" font-size="9" fill="#c9d1d9" text-anchor="middle" transform="rotate(-45 846.56 235.00)">15:58</text>
  </g>
</svg>