<svg xmlns="http://www.w3.org/2000/svg" width="900" height="290" style="font-family: -apple-system, BlinkMacSystemFont, 'Segoe UI', Helvetica, Arial, sans-serif;">
  <rect width="100%" height="100%" fill="#0d1117"/>
  <g>
    <line x1="40" y1="220.00" x2="860" y2="220.00" stroke="#30363d"/><text x="32" y="224.00" font-size="10" fill="#c9d1d9" text-anchor="end">0</text><line x1="40" y1="184.00" x2="860" y2="184.00" stroke="#30363d"/><text x="32" y="188.00" font-size="10" fill="#c9d1d9" text-anchor="end">100</text><line x1="40" y1="148.00" x2="860" y2="148.00" stroke="#30363d"/><text x="32" y="152.00" font-size="10" fill="#c9d1d9" text-anchor="end">200</text><line x1="40" y1="112.00" x2="860" y2="112.00" stroke="#30363d"/><text x="32" y="116.00" font-size="10" fill="#c9d1d9" text-anchor="end">300</text><line x1="40" y1="76.00" x2="860" y2="76.00" stroke="#30363d"/><text x="32" y="80.00" font-size="10" fill="#c9d1d9" text-anchor="end">400</text><line x1="40" y1="40.00" x2="860" y2="40.00" stroke="#30363d"/><text x="32" y="44.00" font-size="10" fill="#c9d1d9" text-anchor="end">500</text>
    <line x1="40.00" y1="40" x2="40.00" y2="220" stroke="#30363d" opacity="0.5"/><line x1="122.00" y1="40" x2="122.00" y2="220" stroke="#30363d" opacity="0.5"/><line x1="204.00" y1="40" x2="204.00" y2="220" stroke="#30363d" opacity="0.5"/><line x1="286.00" y1="40" x2="286.00" y2="220" stroke="#30363d" opacity="0.5"/><line x1="368.00" y1="40" x2="368.00" y2="220" stroke="#30363d" opacity="0.5"/><line x1="450.00" y1="40" x2="450.00" y2="220" stroke="#30363d" opacity="0.5"/><line x1="532.00" y1="40" x2="532.00" y2="220" stroke="#30363d" opacity="0.5"/><line x1="614.00" y1="40" x2="614.00" y2="220" stroke="#30363d" opacity="0.5"/><line x1="696.00" y1="40" x2="696.00" y2="220" stroke="#30363d" opacity="0.5"/><line x1="778.00" y1="40" x2="778.00" y2="220" stroke="#30363d" opacity="0.5"/><line x1="860.00" y1="40" x2="860.00" y2="220" stroke="#30363d" opacity="0.5"/>
    <line x1="40" y1="220" x2="860" y2="220" stroke="#30363d"/>
    <line x1="40" y1="40"   x2="40"   y2="220" stroke="#30363d"/>
    <path d="M 40.00 219.28 L 60.50 204.52 L 81.00 178.96 L 101.50 167.80 L 122.00 160.60 L 142.50 146.56 L 163.00 147.28 L 183.50 167.44 L 204.00 167.44 L 224.50 167.44 L 245.00 167.44 L 265.50 167.44 L 286.00 159.88 L 306.50 159.88 L 327.00 159.88 L 347.50 159.88 L 368.00 156.64 L 388.50 156.64 L 409.00 151.96 L 429.50 151.96 L 450.00 151.96 L 470.50 150.16 L 491.00 150.16 L 511.50 150.16 L 532.00 150.16 L 552.50 150.16 L 573.00 150.16 L 593.50 150.16 L 614.00 150.16 L 634.50 150.16 L 655.00 147.64 L 675.50 147.64 L 696.00 147.64 L 716.50 147.64 L 737.00 147.64 L 757.50 147.64 L 778.00 143.32 L 798.50 143.32 L 819.00 137.92 L 839.50 137.92 L 860.00 138.64" fill="none" stroke="#3fb950" stroke-width="2"/>
    <circle cx="860.00" cy="138.64" r="3" fill="#3fb950"/>
    <text x="40.00" y="235.00" font-size="9" fill="#c9d1d9" text-anchor="middle" transform="rotate(-45 40.00 235.00)">02:36</text><text x="122.00" y="235.00" font-size="9" fill="#c9d1d9" text-anchor="middle" transform="rotate(-45 122.00 235.00)">01:10</text><text x="204.00" y="235.00" font-size="9" fill="#c9d1d9" text-anchor="middle" transform="rotate(-45 204.00 235.00)">01:17</text><text x="286.00" y="235.00" font-size="9" fill="#c9d1d9" text-anchor="middle" transform="rotate(-45 286.00 235.00)">01:26</text><text x="368.00" y="235.00" font-size="9" fill="#c9d1d9" text-anchor="middle" transform="rotate(-45 368.00 235.00)">01:44</text><text x="450.00" y="235.00" font-size="9" fill="#c9d1d9" text-anchor="middle" transform="rotate(-45 450.00 235.00)">23:51</text><text x="532.00" y="235.00" font-size="9" fill="#c9d1d9" text-anchor="middle" transform="rotate(-45 532.00 235.00)">01:55</text><text x="614.00" y="235.00" font-size="9" fill="#c9d1d9" text-anchor="middle" transform="rotate(-45 614.00 235.00)">02:06</text><text x="696.00" y="235.00" font-size="9" fill="#c9d1d9" text-anchor="middle" transform="rotate(-45 696.00 235.00)">02:10</text><text x="778.00" y="235.00" font-size="9" fill="#c9d1d9" text-anchor="middle" transform="rotate(-45 778.00 235.00)">02:29</text><text x="860.00" y="235.00" font-size="9" fill="#c9d1d9" text-anchor="middle" transform="rotate(-45 860.00 235.00)">02:35</text>
  </g>
</svg>